<?xml version="1.0" encoding="UTF-8"?>
<svg width="1340px" height="1340px" viewBox="0 0 1340 1340" version="1.1" xmlns="http://www.w3.org/2000/svg" xmlns:xlink="http://www.w3.org/1999/xlink">
    <!-- Generator: Sketch 49.2 (51160) - http://www.bohemiancoding.com/sketch -->
    <title>today_card</title>
    <desc>Created with Sketch.</desc>
    <defs>
        <polygon id="path-1" points="39 510.580906 1301 531 1276.72301 1146.06333 39 1165"></polygon>
    </defs>
    <g id="today_card" stroke="none" stroke-width="1" fill="none" fill-rule="evenodd">
        <g id="logo" transform="translate(1170.000000, 1196.000000)" fill-rule="nonzero">
            <g id="light" fill="#646464">
                <circle id="Oval" cx="59.6613559" cy="1.29084746" r="1.12949153"></circle>
                <circle id="Oval" cx="117.830169" cy="59.5" r="1.12949153"></circle>
                <circle id="Oval" cx="1.45220339" cy="59.5" r="1.12949153"></circle>
                <circle id="Oval" cx="8.75355932" cy="52.1986441" r="1.73457627"></circle>
                <circle id="Oval" cx="16.0145763" cy="44.9376271" r="2.33966102"></circle>
                <circle id="Oval" cx="23.3159322" cy="37.6362712" r="2.98508475"></circle>
                <circle id="Oval" cx="30.5769492" cy="30.3752542" r="3.59016949"></circle>
                <circle id="Oval" cx="66.9223729" cy="8.59220339" r="1.73457627"></circle>
                <circle id="Oval" cx="59.6613559" cy="15.8532203" r="2.21864407"></circle>
                <circle id="Oval" cx="52.400339" cy="23.1142373" r="2.66237288"></circle>
                <circle id="Oval" cx="45.139322" cy="30.3752542" r="3.14644068"></circle>
                <circle id="Oval" cx="30.5769492" cy="44.9376271" r="3.14644068"></circle>
                <circle id="Oval" cx="23.2755932" cy="52.2389831" r="2.66237288"></circle>
                <circle id="Oval" cx="15.9742373" cy="59.540339" r="2.21864407"></circle>
                <circle id="Oval" cx="8.67288136" cy="66.8416949" r="1.73457627"></circle>
                <circle id="Oval" cx="74.2237288" cy="15.8532203" r="2.33966102"></circle>
                <circle id="Oval" cx="66.9223729" cy="23.1142373" r="2.66237288"></circle>
                <circle id="Oval" cx="59.6613559" cy="30.3752542" r="2.98508475"></circle>
                <circle id="Oval" cx="52.400339" cy="37.6766102" r="3.30779661"></circle>
                <circle id="Oval" cx="30.5366102" cy="59.5" r="2.98508475"></circle>
                <circle id="Oval" cx="23.2755932" cy="66.8013559" r="2.66237288"></circle>
                <circle id="Oval" cx="15.9742373" cy="74.1027119" r="2.33966102"></circle>
                <circle id="Oval" cx="81.4847458" cy="23.1545763" r="2.98508475"></circle>
                <circle id="Oval" cx="74.2237288" cy="30.4155932" r="3.14644068"></circle>
                <circle id="Oval" cx="66.9627119" cy="37.6766102" r="3.30779661"></circle>
                <circle id="Oval" cx="59.7016949" cy="44.9376271" r="3.42881356"></circle>
                <circle id="Oval" cx="45.139322" cy="59.5" r="3.42881356"></circle>
                <circle id="Oval" cx="30.5366102" cy="74.1027119" r="3.14644068"></circle>
                <circle id="Oval" cx="23.2352542" cy="81.4040678" r="2.98508475"></circle>
                <circle id="Oval" cx="88.7457627" cy="30.4155932" r="3.59016949"></circle>
                <circle id="Oval" cx="52.400339" cy="66.7610169" r="3.59016949"></circle>
                <circle id="Oval" cx="45.0989831" cy="74.0623729" r="3.59016949"></circle>
                <circle id="Oval" cx="30.5366102" cy="88.6650847" r="3.59016949"></circle>
                <circle id="Oval" cx="96.0471186" cy="37.6766102" r="2.98508475"></circle>
                <circle id="Oval" cx="88.7861017" cy="44.9376271" r="3.14644068"></circle>
                <circle id="Oval" cx="74.2237288" cy="59.5" r="3.42881356"></circle>
                <circle id="Oval" cx="66.9627119" cy="66.7610169" r="3.59016949"></circle>
                <circle id="Oval" cx="59.6613559" cy="74.0623729" r="3.42881356"></circle>
                <circle id="Oval" cx="52.400339" cy="81.3233898" r="3.30779661"></circle>
                <circle id="Oval" cx="45.0989831" cy="88.6247458" r="3.14644068"></circle>
                <circle id="Oval" cx="37.7976271" cy="95.9261017" r="2.98508475"></circle>
                <circle id="Oval" cx="103.308136" cy="44.9376271" r="2.33966102"></circle>
                <circle id="Oval" cx="96.0471186" cy="52.2389831" r="2.66237288"></circle>
                <circle id="Oval" cx="88.7861017" cy="59.5" r="2.98508475"></circle>
                <circle id="Oval" cx="74.2640678" cy="74.0220339" r="3.59016949"></circle>
                <circle id="Oval" cx="66.9627119" cy="81.3233898" r="3.30779661"></circle>
                <circle id="Oval" cx="59.6613559" cy="88.6247458" r="2.98508475"></circle>
                <circle id="Oval" cx="52.36" cy="95.8857627" r="2.66237288"></circle>
                <circle id="Oval" cx="45.0586441" cy="103.187119" r="2.33966102"></circle>
                <circle id="Oval" cx="110.569153" cy="52.2389831" r="1.73457627"></circle>
                <circle id="Oval" cx="103.308136" cy="59.5" r="2.21864407"></circle>
                <circle id="Oval" cx="96.0471186" cy="66.7610169" r="2.66237288"></circle>
                <circle id="Oval" cx="88.7861017" cy="74.0220339" r="3.14644068"></circle>
                <circle id="Oval" cx="74.2237288" cy="88.5844068" r="3.14644068"></circle>
                <circle id="Oval" cx="66.9223729" cy="95.8857627" r="2.66237288"></circle>
                <circle id="Oval" cx="59.6210169" cy="103.187119" r="2.21864407"></circle>
                <circle id="Oval" cx="52.319661" cy="110.448136" r="1.73457627"></circle>
                <circle id="Oval" cx="88.7861017" cy="88.5844068" r="3.59016949"></circle>
                <circle id="Oval" cx="37.8783051" cy="23.1142373" r="2.98508475"></circle>
                <circle id="Oval" cx="45.139322" cy="15.8532203" r="2.33966102"></circle>
                <circle id="Oval" cx="52.400339" cy="8.59220339" r="1.73457627"></circle>
                <circle id="Oval" cx="59.7016949" cy="117.709153" r="1.12949153"></circle>
                <circle id="Oval" cx="66.9627119" cy="110.407797" r="1.73457627"></circle>
                <circle id="Oval" cx="74.2237288" cy="103.14678" r="2.33966102"></circle>
                <circle id="Oval" cx="81.5250847" cy="95.8454237" r="2.98508475"></circle>
                <circle id="Oval" cx="96.0874576" cy="81.3233898" r="2.98508475"></circle>
                <circle id="Oval" cx="103.348475" cy="74.0623729" r="2.33966102"></circle>
                <circle id="Oval" cx="110.609492" cy="66.8013559" r="1.73457627"></circle>
            </g>
            <g id="dark" opacity="0.501075634" transform="translate(33.884746, 33.884746)" fill="#000000">
                <circle id="Oval" cx="3.95322034" cy="3.75152542" r="3.59016949"></circle>
                <circle id="Oval" cx="11.2545763" cy="11.0528814" r="3.59016949"></circle>
                <circle id="Oval" cx="3.95322034" cy="18.3542373" r="3.30779661"></circle>
                <circle id="Oval" cx="18.5155932" cy="18.3138983" r="3.59016949"></circle>
                <circle id="Oval" cx="3.91288136" cy="32.9166102" r="3.30779661"></circle>
                <circle id="Oval" cx="47.6" cy="3.79186441" r="3.59016949"></circle>
                <circle id="Oval" cx="40.3389831" cy="11.0528814" r="3.59016949"></circle>
                <circle id="Oval" cx="33.0779661" cy="18.3138983" r="3.59016949"></circle>
                <circle id="Oval" cx="25.7766102" cy="25.5749153" r="3.59016949"></circle>
                <circle id="Oval" cx="3.91288136" cy="47.4789831" r="3.59016949"></circle>
                <circle id="Oval" cx="47.6" cy="18.3542373" r="3.30779661"></circle>
                <circle id="Oval" cx="47.6" cy="32.8762712" r="3.30779661"></circle>
                <circle id="Oval" cx="47.640339" cy="47.4386441" r="3.59016949"></circle>
            </g>
        </g>
        <g id="bg" transform="translate(946.000000, 1191.000000)" fill="#000000">
            <path d="M7.82746432,110.842127 L7.0062392,111.827241 C6.1593508,110.764355 4.49123728,109.053368 3.18240975,107.809014 L3.97797158,107.005368 C5.3124624,108.223798 6.98057592,109.882938 7.82746432,110.842127 Z M6.10802423,126.241013 L9.52124112,123.830076 C9.59823098,124.167089 9.77787397,124.633722 9.9061904,124.841114 C5.23547254,128.314937 4.64521699,128.755646 4.33725757,129.196354 C4.18327786,128.937114 3.74700202,128.496405 3.51603246,128.314937 C3.9523083,127.977924 4.92751313,127.070582 4.92751313,125.852152 L4.92751313,115.923241 L0.641744548,115.923241 L0.641744548,114.704811 L6.10802423,114.704811 L6.10802423,126.241013 Z M15.9883889,127.874228 L23.6617111,127.874228 L23.6617111,129.092658 L8.39205659,129.092658 L8.39205659,127.874228 L14.730888,127.874228 L14.730888,106.616507 L15.9883889,106.616507 L15.9883889,115.197368 L21.6343116,115.197368 L21.6343116,116.415798 L15.9883889,116.415798 L15.9883889,127.874228 Z M48.606424,110.401419 L31.4376864,110.401419 C30.1801855,112.553115 28.7173782,114.44557 27.254571,115.897317 C27.0236014,115.689925 26.4846724,115.301064 26.176713,115.119596 C28.5377352,112.993824 30.7447777,109.675545 32.1305951,106.305419 L33.3367695,106.668355 C32.9518202,107.523849 32.5412077,108.405267 32.0792685,109.234836 L48.606424,109.234836 L48.606424,110.401419 Z M40.7021323,118.049013 L39.957897,118.904507 C38.9057023,117.893469 36.801313,116.571342 35.004883,115.767697 L35.7491183,115.015899 C37.5455482,115.793621 39.6499376,117.063899 40.7021323,118.049013 Z M34.1579946,121.626532 L34.8765666,120.874735 C36.7756497,121.808 39.0853453,123.311595 40.1888666,124.400405 L39.418968,125.281823 C38.3154468,124.141165 36.082741,122.611646 34.1579946,121.626532 Z M30.3341652,125.437367 L44.2180023,125.437367 C44.371982,124.218937 44.5002984,122.585722 44.6029516,120.485874 L31.129727,120.485874 C30.8474309,122.300557 30.5651347,124.011545 30.3341652,125.437367 Z M44.8339211,114.523342 L31.9509521,114.523342 C31.7713091,116.052861 31.5403396,117.686076 31.30937,119.345216 L44.6286149,119.345216 C44.7056047,117.945317 44.7825946,116.338026 44.8339211,114.523342 Z M49.4276491,120.485874 L45.809126,120.485874 C45.7064728,122.559798 45.5781564,124.193013 45.44984,125.437367 L48.6577506,125.437367 L48.6577506,126.578025 L45.2958603,126.578025 C45.090554,128.003848 44.8339211,128.78157 44.5259617,129.196354 C44.0896859,129.714835 43.6020835,129.896304 42.8835115,129.948152 C42.1906028,129.974076 40.9331018,129.948152 39.6756009,129.844456 C39.6499376,129.533367 39.5216212,129.092658 39.3419782,128.78157 C40.7277956,128.885266 42.0109598,128.91119 42.4985622,128.91119 C42.9605013,128.91119 43.2171342,128.859342 43.4481038,128.574177 C43.65341,128.289013 43.8843796,127.69276 44.0640226,126.578025 L28.8970212,126.578025 C29.2049806,124.970734 29.5899299,122.793114 29.9492159,120.485874 L26.2537029,120.485874 L26.2537029,119.345216 L30.1031956,119.345216 C30.411155,117.271292 30.6934512,115.119596 30.8987574,113.382684 L46.0657588,113.382684 C46.0657588,113.382684 46.0400955,113.901165 46.0400955,114.082634 C45.9631057,116.104709 45.9117791,117.815697 45.8347893,119.345216 L49.4276491,119.345216 L49.4276491,120.485874 Z M62.8495471,129.948152 L62.8495471,113.641925 L64.0813848,113.641925 L64.0813848,129.948152 L62.8495471,129.948152 Z M63.7477621,106.460963 L64.8256201,106.979444 C64.6459771,107.316457 64.4150075,107.679393 64.1583747,108.04233 C67.0326626,111.982786 70.7025123,114.756659 75.270577,117.141671 C74.9369543,117.374988 74.5776683,117.841621 74.3723621,118.204557 C69.9582771,115.741773 66.442407,112.993824 63.465466,109.00152 C60.7451578,112.734583 56.7673486,116.104709 52.6868863,118.178633 C52.4559168,117.841621 52.1222941,117.374988 51.7630081,117.115747 C56.5877056,114.834431 61.1814336,110.764355 63.7477621,106.460963 Z M88.5641586,106.590583 L89.8729861,106.590583 C89.8473229,107.420153 89.8473229,108.664507 89.7190064,110.142178 C90.0782924,112.734583 91.5924262,124.581874 100.831209,128.729722 C100.497586,128.988962 100.1383,129.403747 99.9329938,129.74076 C92.8755905,126.474329 90.2835987,118.852659 89.2057407,114.004861 C88.2048726,119.526684 85.5615543,126.266937 78.6068041,129.818532 C78.3758345,129.507443 77.9652219,129.144506 77.6572625,128.91119 C88.4615055,123.570836 88.512832,110.297722 88.5641586,106.590583 Z M118.205253,128.159392 L123.440563,128.159392 C124.852043,128.159392 125.05735,127.511291 125.185666,123.856 C125.519289,124.089317 126.032555,124.296709 126.391841,124.374481 C126.186534,128.340861 125.775922,129.377823 123.517553,129.377823 L118.153926,129.377823 C115.84423,129.377823 115.202648,128.885266 115.202648,127.018734 L115.202648,117.297216 L114.253107,117.297216 C113.226575,122.430178 110.634584,127.355747 104.013456,130 C103.833813,129.688911 103.448864,129.222279 103.166568,128.988962 C109.479736,126.60395 111.969074,122.041317 113.046932,117.297216 L103.448864,117.297216 L103.448864,116.078785 L113.252239,116.078785 C113.662851,113.823393 113.765504,111.542077 113.816831,109.494077 L105.065651,109.494077 L105.065651,108.275646 L124.698064,108.275646 L124.698064,109.494077 L115.023005,109.494077 C114.946015,111.568001 114.843362,113.823393 114.458413,116.078785 L126.186534,116.078785 L126.186534,117.297216 L116.434486,117.297216 L116.434486,127.044658 C116.434486,127.926076 116.742445,128.159392 118.205253,128.159392 Z M136.631491,107.497925 L137.427053,108.016406 C136.631491,110.09033 135.60496,112.604963 134.681082,114.678887 C136.708481,116.908355 137.221747,118.852659 137.221747,120.511798 C137.221747,121.730228 136.965114,122.819038 136.297869,123.285671 C135.989909,123.518988 135.52797,123.674532 135.040368,123.72638 C134.501439,123.778228 133.834193,123.778228 133.295264,123.752304 C133.269601,123.415291 133.141284,122.948659 132.910315,122.611646 C133.57756,122.63757 134.167816,122.663494 134.629755,122.63757 C134.963378,122.611646 135.271337,122.533874 135.476643,122.378329 C135.938583,122.067241 136.092562,121.237671 136.092562,120.434026 C136.092562,118.904507 135.52797,117.063899 133.474907,114.834431 C134.373122,112.786431 135.271337,110.505115 135.887256,108.716355 L131.370518,108.716355 L131.370518,129.948152 L130.241333,129.948152 L130.241333,107.549773 L136.426185,107.549773 L136.631491,107.497925 Z M140.224351,113.693773 L140.224351,117.58238 L148.898541,117.58238 L148.898541,113.693773 L140.224351,113.693773 Z M148.898541,108.820052 L140.224351,108.820052 L140.224351,112.579039 L148.898541,112.579039 L148.898541,108.820052 Z M150.771961,119.915545 L151.644513,120.745114 C150.258695,121.963545 148.282623,123.181975 146.717162,124.115241 C148.10298,126.163241 149.89941,127.770532 152.183442,128.626025 C151.926809,128.91119 151.516196,129.377823 151.336553,129.714835 C147.179101,127.874228 144.561446,123.907848 143.252619,118.723038 L140.224351,118.723038 L140.224351,128.029772 L145.305682,126.707646 C145.305682,127.044658 145.331345,127.589063 145.382671,127.848304 C139.942055,129.403747 139.249146,129.611139 138.81287,129.922228 C138.710217,129.637063 138.453584,129.118582 138.222615,128.807494 C138.556238,128.651949 139.018177,128.237165 139.018177,127.226127 L139.018177,107.679393 L150.079053,107.679393 L150.079053,118.723038 L144.381803,118.723038 C144.792416,120.356254 145.408335,121.859848 146.15257,123.181975 C147.692367,122.274633 149.59145,120.926583 150.771961,119.915545 Z M166.657535,115.14552 L158.855896,115.14552 L158.855896,122.145013 L166.657535,122.145013 L166.657535,115.14552 Z M167.889372,123.363443 L158.855896,123.363443 L158.855896,125.463291 L157.649722,125.463291 L157.649722,113.927089 L167.889372,113.927089 L167.889372,123.363443 Z M177.461777,108.379343 L177.461777,109.597773 L174.228204,109.597773 L174.228204,127.848304 C174.228204,128.963038 173.920244,129.455595 173.099019,129.688911 C172.226467,129.922228 170.481364,129.922228 167.992025,129.922228 C167.889372,129.533367 167.658403,128.937114 167.453096,128.548253 C169.660139,128.626025 171.661875,128.600101 172.277794,128.574177 C172.79106,128.522329 172.970703,128.366785 172.970703,127.82238 L172.970703,109.597773 L154.852423,109.597773 L154.852423,108.379343 L177.461777,108.379343 Z M200.76404,117.634228 L195.862353,117.634228 C193.757963,117.634228 193.142045,117.219444 193.142045,115.53438 L193.142045,106.460963 L194.348219,106.460963 L194.348219,111.17914 C196.786231,110.401419 199.480876,109.416305 201.097663,108.586735 L201.970215,109.520001 C199.917152,110.453267 196.965874,111.464305 194.348219,112.216102 L194.348219,115.508456 C194.348219,116.286178 194.604852,116.467646 195.888016,116.467646 L200.68705,116.467646 C201.764908,116.467646 201.970215,116.001013 202.072868,113.304912 C202.380827,113.512304 202.842766,113.693773 203.227716,113.797469 C203.048073,116.830583 202.663123,117.634228 200.76404,117.634228 Z M182.902394,123.389367 L189.292552,123.389367 L189.292552,120.511798 L182.902394,120.511798 L182.902394,123.389367 Z M189.292552,116.700963 L182.902394,116.700963 L182.902394,119.448912 L189.292552,119.448912 L189.292552,116.700963 Z M190.498726,115.586228 L190.498726,128.237165 C190.498726,129.066734 190.319083,129.429671 189.754491,129.662987 C189.138572,129.87038 188.035051,129.896304 186.392601,129.896304 C186.341274,129.533367 186.135968,129.04081 185.956325,128.677873 C187.367805,128.729722 188.49699,128.703798 188.856276,128.677873 C189.215562,128.677873 189.292552,128.600101 189.292552,128.263089 L189.292552,124.452253 L182.902394,124.452253 L182.902394,129.922228 L181.721883,129.922228 L181.721883,115.586228 L190.498726,115.586228 Z M187.085509,108.431191 L188.060714,107.990482 C189.472195,109.727393 190.986329,112.060558 191.550921,113.590077 L190.550053,114.082634 C190.37041,113.667849 190.13944,113.201216 189.882807,112.682735 C182.337802,113.201216 181.567903,113.304912 181.080301,113.48638 C181.028974,113.201216 180.823668,112.553115 180.669688,112.242026 C181.028974,112.190178 181.38826,111.801317 181.798873,111.205064 C182.286475,110.686583 183.774946,108.508963 184.698824,106.409115 L185.930662,106.875748 C184.90413,108.768203 183.697956,110.660659 182.517445,112.086482 L189.318215,111.697621 C188.65097,110.582887 187.855408,109.416305 187.085509,108.431191 Z M195.939343,128.574177 L200.84103,128.574177 C201.995878,128.574177 202.175521,128.029772 202.303837,124.970734 C202.611797,125.204051 203.073736,125.385519 203.433022,125.437367 C203.253379,128.859342 202.86843,129.688911 200.892357,129.688911 L195.913679,129.688911 C193.757963,129.688911 193.142045,129.274127 193.142045,127.563139 L193.142045,118.489722 L194.373882,118.489722 L194.373882,122.922734 C196.965874,122.145013 199.865825,121.108051 201.482612,120.071089 L202.303837,121.030279 C200.327764,122.222785 197.119854,123.233823 194.373882,123.985621 L194.373882,127.589063 C194.373882,128.366785 194.630515,128.574177 195.939343,128.574177 Z" id="让每个人无限可能"></path>
            <path d="M31.3194753,89.9132623 L38.947283,89.9132623 C41.2204707,89.9132623 41.5740777,88.8049941 41.8771694,82.1553847 C42.9379903,83.0117738 45.0596322,83.8177871 46.3730296,84.120042 C45.7668462,92.331302 44.4029335,94.4974626 39.30089,94.4974626 L30.7132919,94.4974626 C25.0555802,94.4974626 23.590637,92.9861878 23.590637,87.7974775 L23.590637,71.82834 L23.1359995,71.82834 C21.0648729,81.500499 15.9628293,90.5177722 3.18246281,95.7064825 C2.52576414,94.4974626 1.21236679,92.7846845 0,91.7771679 C11.4669692,87.4448467 16.265921,79.9892241 18.3370476,71.82834 L0.757729241,71.82834 L0.757729241,67.2441396 L19.1958074,67.2441396 C19.7009603,63.8689591 19.8525061,60.5441545 19.9535367,57.2697257 L3.78864621,57.2697257 L3.78864621,52.7359011 L43.0895362,52.7359011 L43.0895362,57.2697257 L24.7524885,57.2697257 C24.6009427,60.5441545 24.4493968,63.8689591 23.9947593,67.2441396 L45.918392,67.2441396 L45.918392,71.82834 L28.4906195,71.82834 L28.4906195,87.7471017 C28.4906195,89.6110073 28.945257,89.9132623 31.3194753,89.9132623 Z M62.5505489,63.1636976 L62.5505489,67.8486496 L72.8556665,67.8486496 L72.8556665,63.1636976 L62.5505489,63.1636976 Z M62.5505489,54.9524376 L62.5505489,59.5366379 L72.8556665,59.5366379 L72.8556665,54.9524376 L62.5505489,54.9524376 Z M88.0102514,59.5366379 L88.0102514,54.9524376 L77.6041031,54.9524376 L77.6041031,59.5366379 L88.0102514,59.5366379 Z M88.0102514,67.8486496 L88.0102514,63.1636976 L77.6041031,63.1636976 L77.6041031,67.8486496 L88.0102514,67.8486496 Z M92.8597185,71.6772125 L83.665937,71.6772125 C87.3535527,75.2035205 92.9102338,78.0749427 98.6184607,79.5358417 C97.5576398,80.4929824 96.1432119,82.3065122 95.4359979,83.5155321 C92.1019893,82.4576397 88.8690112,80.8456132 85.9391248,78.9313317 L85.9391248,95.6057308 L81.0896576,95.6057308 L81.0896576,78.1253185 L84.8277885,78.1253185 C82.3020244,76.2614129 79.9783214,74.0448764 78.2102865,71.6772125 L72.8051513,71.6772125 C70.9866011,73.9945006 68.6628981,76.211037 66.0866186,78.0749427 L70.2793871,78.0749427 L70.2793871,81.2989957 C70.2793871,86.0846993 69.0670203,92.2305504 59.1155096,96.0591133 C58.5598415,94.8500934 56.9938678,93.1373153 55.9330468,92.2305504 C64.5206449,89.2583765 65.4804353,84.6741762 65.4804353,81.1478682 L65.4804353,78.5283251 C62.3484877,80.6944857 58.9134485,82.4576397 55.427894,83.7170354 C54.72068,82.5080155 53.3567674,80.7952374 52.2959465,79.8380967 C57.7010817,78.276446 63.3082781,75.2538963 67.046409,71.6772125 L57.9031428,71.6772125 L57.9031428,51.1238746 L92.8597185,51.1238746 L92.8597185,71.6772125 Z M123.939246,76.7147953 L121.00936,80.5937341 C120.049569,79.1832109 118.129989,76.9162986 116.412469,74.9516413 L116.412469,95.6561067 L111.866094,95.6561067 L111.866094,76.1102854 C109.794967,78.1253185 107.572295,79.8884725 105.450653,81.2486198 C105.097046,79.9892241 104.08674,77.5208086 103.480557,76.6140437 C108.784661,73.5411181 114.139281,68.0501529 117.372259,62.2065568 L104.894985,62.2065568 L104.894985,57.9749873 L114.442373,57.9749873 C113.533098,56.1110816 111.613517,53.2900352 109.895998,51.3757538 L113.533098,49.3103448 C115.402163,51.2750021 117.422775,53.944921 118.281535,55.7584508 L114.644434,57.9749873 L119.847508,57.9749873 L120.655753,57.7734839 L123.181517,59.5366379 C121.716574,63.2644492 119.594932,66.841133 117.170198,70.1155618 C119.19081,71.9290916 122.928941,75.6569029 123.939246,76.7147953 Z M139.194862,89.3087523 L150.510285,89.3087523 L150.510285,93.8929527 L121.666058,93.8929527 L121.666058,89.3087523 L134.39591,89.3087523 L134.39591,69.3095486 L123.939246,69.3095486 L123.939246,64.8260999 L134.39591,64.8260999 L134.39591,49.5118481 L139.194862,49.5118481 L139.194862,64.8260999 L149.398949,64.8260999 L149.398949,69.3095486 L139.194862,69.3095486 L139.194862,89.3087523 Z M163.606372,89.7621348 L202.149533,89.7621348 L202.149533,94.2455835 L159.009481,94.2455835 L159.009481,51.9298879 L200.886651,51.9298879 L200.886651,56.4133366 L163.606372,56.4133366 L163.606372,89.7621348 Z M196.744397,83.3644046 L193.006267,86.7899609 C190.581533,83.8177871 186.843402,80.0396 182.600118,76.0599095 C178.40735,80.2914791 173.91149,83.9185387 169.365114,86.7899609 C168.55687,85.883196 166.73832,84.0696662 165.677499,83.263653 C170.425935,80.5937341 175.073341,77.0674261 179.26611,73.0373599 C175.275402,69.4606761 171.183664,65.9343681 167.445533,62.9621942 L170.779542,60.1915237 C174.366127,62.9621942 178.457865,66.3373747 182.398057,69.762931 C185.631035,66.2366231 188.459891,62.458436 190.733079,58.4787455 L195.127908,60.2418995 C192.501114,64.6749724 189.318651,68.8561661 185.833096,72.7351049 C190.177411,76.5636678 194.117603,80.3418549 196.744397,83.3644046 Z" id="无界社区"></path>
            <path d="M0.641744548,37.1428571 L0.641744548,0 L7.357419,0 L14.174081,18.7732919 C15.0324755,21.246118 15.7898824,23.7694099 16.6482769,26.2927019 L16.9007458,26.2927019 C17.7591403,23.7694099 18.4660534,21.246118 19.3244479,18.7732919 L26.0401223,0 L32.8062906,0 L32.8062906,37.1428571 L27.352961,37.1428571 L27.352961,18.7732919 C27.352961,15.4425466 27.8074051,10.6482919 28.1103678,7.26708075 L27.9083927,7.26708075 L24.9292589,15.8462733 L18.4660534,33.5597826 L14.8305003,33.5597826 L8.31680106,15.8462733 L5.38816107,7.26708075 L5.1861859,7.26708075 C5.43865487,10.6482919 5.893099,15.4425466 5.893099,18.7732919 L5.893099,37.1428571 L0.641744548,37.1428571 Z M48.8633167,37.1428571 L48.8633167,0 L54.7205967,0 L54.7205967,37.1428571 L48.8633167,37.1428571 Z M66.6876256,37.1428571 L77.3418159,17.9658385 L67.3440449,0 L73.8577442,0 L78.3516917,8.68012422 C79.26058,10.3959627 80.0684807,12.0613354 81.1793441,14.2818323 L81.4318131,14.2818323 C82.3911951,12.0613354 83.0981082,10.3959627 83.9565027,8.68012422 L88.3494627,0 L94.5097054,0 L84.5119344,18.2686335 L95.2166185,37.1428571 L88.7029192,37.1428571 L83.8050213,27.9076087 C82.8456393,26.0403727 81.8862572,24.1226708 80.7249,21.8517081 L80.5229248,21.8517081 C79.4625552,24.1226708 78.5536669,26.0403727 77.6447786,27.9076087 L72.8983621,37.1428571 L66.6876256,37.1428571 Z M107.183647,37.1428571 L107.183647,0 L113.040927,0 L113.040927,32.197205 L128.744497,32.197205 L128.744497,37.1428571 L107.183647,37.1428571 Z M147.225225,21.9526398 L157.374478,21.9526398 L155.910158,16.9565217 C154.647813,12.9192547 153.536949,8.7810559 152.375592,4.5923913 L152.173617,4.5923913 C151.113247,8.83152174 149.95189,12.9192547 148.740039,16.9565217 L147.225225,21.9526398 Z M161.918919,37.1428571 L158.788304,26.5450311 L145.861893,26.5450311 L142.680784,37.1428571 L136.722516,37.1428571 L149.043002,0 L155.80917,0 L168.129655,37.1428571 L161.918919,37.1428571 Z M179.339277,37.1428571 L179.339277,0 L190.851862,0 C198.476425,0 203.980248,2.42236025 203.980248,9.13431677 C203.980248,12.6669255 202.01099,16.0481366 198.6784,17.1583851 L198.6784,17.4107143 C202.919879,18.3190994 206,21.1956522 206,26.242236 C206,33.6102484 199.991239,37.1428571 191.76075,37.1428571 L179.339277,37.1428571 Z M185.196557,15.4930124 L190.195443,15.4930124 C195.850748,15.4930124 198.223956,13.3734472 198.223956,9.89130435 C198.223956,6.00543478 195.598279,4.54192547 190.346924,4.54192547 L185.196557,4.54192547 L185.196557,15.4930124 Z M185.196557,32.5504658 L191.104331,32.5504658 C196.911117,32.5504658 200.243708,30.4813665 200.243708,25.939441 C200.243708,21.7507764 197.012105,19.9340062 191.104331,19.9340062 L185.196557,19.9340062 L185.196557,32.5504658 Z" id="MIXLAB"></path>
        </g>
        <g id="detail">
            <use fill="#FFFFFF" fill-rule="evenodd" xlink:href="#path-1"></use>
            <path stroke="#000000" stroke-width="14" d="M46,517.695081 L46,1157.89208 L1269.98982,1139.16552 L1293.72287,537.883173 L46,517.695081 Z"></path>
        </g>
        <rect id="title" x="27" y="4" width="455" height="81"></rect>
        <rect id="emoji" x="155" y="130" width="453" height="453"></rect>
        <g id="emoji" transform="translate(1243.000000, -392.000000)" fill="#FFFFFF" stroke="#000000" stroke-width="8">
            <path d="M429.171826,82.3265011 C473.17228,89.2568536 506.96888,115.392505 511.489575,150.511185 C515.517104,181.677216 495.394139,211.838932 462.302063,230.732952 C463.928339,238.644126 464.307021,246.872451 463.250235,255.229987 C457.710916,299.798614 414.065658,331.058615 365.80577,325.032732 C360.225353,324.330887 354.894455,323.129822 349.707398,321.541126 C342.44493,346.20261 323.390494,364.993849 298.920029,368.147747 C277.420308,370.925761 256.886371,360.970721 243.23622,343.612537 C231.602768,350.836549 218.328363,355.834625 203.865074,357.687613 C156.700133,363.775165 113.07836,335.495802 98.3655521,292.366104 C56.5931544,282.049863 24.6958337,252.108391 19.6790363,213.198573 C15.7513154,182.766691 29.1167214,153.450712 53.190891,132.286708 C50.7514769,125.494375 48.9343923,118.379017 47.9920915,110.928888 C41.0349177,56.9396801 77.7552918,7.7547334 129.983999,1.02113242 C153.221546,-1.96831625 175.575503,3.96359564 193.896061,16.2003664 C203.730041,7.95442152 215.80969,2.31029545 229.354163,0.571834138 C250.666012,-2.18562392 270.973914,5.20283664 285.81882,18.9930635 C295.31228,15.1901794 305.577781,12.4268482 316.468546,11.0290313 C372.762943,3.76684411 423.154017,34.9181913 429.036792,80.5851032 C429.127793,81.1694846 429.116051,81.7391831 429.171826,82.3265011 Z M386.407223,447.371073 C386.407223,447.371073 385.614634,454.982715 380.961841,460.001347 C374.635803,466.823046 356.476699,468.72302 350.949121,452.219384 C350.949121,452.219384 323.205556,460.051269 319.277835,439.233782 C315.758151,420.565879 341.094593,416.47521 341.094593,416.47521 C333.294926,405.60689 344.464566,378.082231 375.451876,394.22173 C375.451876,394.22173 387.15578,369.201983 407.604587,381.294861 C423.835057,390.891637 415.627353,410.008838 406.465607,415.573676 C406.465607,415.573676 419.728269,424.709408 415.028508,437.228091 C410.31994,449.746775 398.15516,450.055117 386.407223,447.371073 Z" id="Combined-Shape"></path>
        </g>
        <g id="oh" transform="translate(813.000000, 180.000000)">
            <path d="M417.379798,247.398589 C425.638248,254.333079 431.323061,263.678779 432.941357,274.495149 C434.176231,282.777618 432.858022,290.880692 429.5625,298.347041 C422.754281,315.172227 405.675651,328.533329 384.165113,331.75485 C354.577736,336.185829 327.399155,319.797232 322.182317,294.894879 C289.835252,305.112107 255.87737,311.636864 224.250248,315.020626 C78.6715318,330.615316 -1.39575173,251.557917 0.0184184166,183.547178 C1.9123963,91.656753 88.0176813,22.7515679 201.989694,5.68634768 C418.398132,-26.7183679 473.593698,87.4927786 472.995201,143.29711 C472.522455,187.092085 450.559179,221.313404 417.379798,247.398589 Z M382.692861,364.935258 C383.43025,369.844604 382.609526,374.612456 380.548878,378.965931 C376.339197,388.880637 365.753123,396.791683 352.550834,398.770076 C333.871162,401.569642 316.835462,391.379527 314.537436,376.002131 C313.815199,371.133212 314.620771,366.30472 316.683944,361.918398 C320.896151,352.054225 331.39889,344.117913 344.644108,342.139519 C363.31873,339.339954 380.394835,349.552809 382.692861,364.935258 Z M327.141227,414.074198 C327.590731,417.065791 327.093246,419.961371 325.830595,422.621968 C323.264886,428.680955 316.797583,433.509447 308.736813,434.717202 C297.337591,436.427767 286.935865,430.202019 285.534321,420.810336 C285.087342,417.846537 285.582302,414.90295 286.842429,412.232246 C289.415713,406.201052 295.83251,401.352347 303.916008,400.137012 C315.315229,398.428974 325.742209,404.682516 327.141227,414.074198 Z" id="Combined-Shape" stroke="#000000" stroke-width="10.08" fill="#FFFFFF"></path>
            <path d="M346.620495,186.638448 C347.291381,191.404862 345.735093,195.676966 342.044165,199.477897 C338.346928,203.274621 333.739052,205.607345 328.15534,206.509724 C322.321361,207.454172 317.114103,206.669586 312.504124,204.259034 C307.738515,201.755931 304.798392,198.156931 303.896165,193.367379 C302.97501,188.518931 304.276825,184.156379 307.862598,180.323897 C311.444165,176.493517 316.394845,174.043 322.634722,173.031241 C328.502351,172.082586 333.823175,172.881897 338.527794,175.403931 C343.238722,177.923862 345.915959,181.684828 346.620495,186.638448 Z M389.454186,194.417 C388.964165,199.025655 386.516165,202.649897 382.177485,205.325483 C377.838804,208.003172 372.982763,209.090655 367.550474,208.62369 C361.891052,208.129379 357.215876,206.175276 353.487093,202.843414 C349.625814,199.389552 347.730928,195.344621 348.012742,190.660241 C348.292454,185.919069 350.528041,182.153897 354.769979,179.419414 C359.018227,176.684931 364.206557,175.557483 370.278186,176.081241 C375.964948,176.573448 380.738969,178.571724 384.549773,182.02769 C388.352165,185.492069 389.969443,189.631655 389.454186,194.417 Z M426.466515,212.083862 C425.217278,215.922655 422.479052,218.570897 418.287588,220.074862 C414.091918,221.578828 409.751134,221.635621 405.183216,220.257862 C400.428124,218.819103 396.78767,216.313897 394.186144,212.801138 C391.506804,209.160069 390.60668,205.369655 391.685567,201.427793 C392.772866,197.433345 395.355464,194.623138 399.47332,193.056069 C403.586969,191.491103 408.228495,191.457448 413.326392,192.995069 C418.102515,194.433828 421.835505,197.006345 424.47699,200.634793 C427.112165,204.275862 427.759918,208.099931 426.466515,212.083862 Z M174.611618,213.569962 C174.359468,218.322497 173.69871,223.056296 172.600082,227.712483 C168.604206,244.62631 157.745938,259.291552 142.258763,267.278345 C126.527629,275.387138 107.993072,275.950862 91.6078763,269.251379 C74.2594639,262.154345 58.8522062,248.887897 49.9897732,233.078379 C40.6289072,216.374897 33.9789278,198.451414 39.8802062,178.468655 C45.1021856,160.768138 59.098268,147.137793 75.1280412,138.875448 C91.1430928,130.625724 110.224454,127.375897 127.692742,133.248724 C138.360602,136.833394 147.21692,143.527539 154.265254,151.882462 C148.85729,136.419759 143.08282,121.08849 137.255505,105.773483 C159.022515,99.6440345 180.978804,94.2318621 203.105443,89.5832414 C207.972,113.003034 212.811216,136.435448 217.618887,159.867862 C222.329814,159.293621 236.801196,156.159483 243.228247,154.889 C239.789691,131.401897 236.351134,107.916897 232.933608,84.4255862 C252.700577,80.8307931 272.469649,77.6756207 292.375423,74.9516552 C293.471134,98.4661034 294.93699,122.239276 296.840289,145.431897 C298.590062,166.695655 300.627959,188.426379 302.405072,209.934138 C287.079835,211.993414 271.863959,214.303 256.620742,216.892345 C253.836247,203.030621 250.990763,189.183621 248.141072,175.336621 C247.083216,175.885621 226.748412,179.547724 220.411794,181.264138 C222.746227,194.993345 225.084866,208.720448 227.423505,222.451759 C211.894268,225.840414 196.457567,229.679207 181.134433,233.909241 C178.972188,227.125845 176.797815,220.346111 174.611618,213.569962 Z M131.17967,206.255207 C123.926103,191.646759 114.691423,187.017069 103.690144,192.685862 C92.9748866,198.201103 91.6604536,208.312379 99.5302268,222.737828 C102.682763,228.507586 106.968866,233.160414 112.32334,236.75731 C118.350804,240.791724 123.492866,241.694103 127.852577,239.445517 C132.109237,237.257931 134.384784,232.451552 134.788577,224.992724 C135.162928,218.192276 134.002021,211.934517 131.17967,206.255207 Z" id="Combined-Shape" fill="#000000"></path>
        </g>
    </g>
</svg>