<?xml version="1.0" encoding="UTF-8"?>
<svg width="1340px" height="1340px" viewBox="0 0 1340 1340" version="1.1" xmlns="http://www.w3.org/2000/svg" xmlns:xlink="http://www.w3.org/1999/xlink">
    <!-- Generator: Sketch 49.2 (51160) - http://www.bohemiancoding.com/sketch -->
    <title>today_card</title>
    <desc>Created with Sketch.</desc>
    <defs></defs>
    <g id="today_card" stroke="none" stroke-width="1" fill="none" fill-rule="evenodd">
        <g id="logo" opacity="0.397192029" transform="translate(937.000000, 837.000000)" fill-rule="nonzero">
            <g id="light" fill="#FFFFFF">
                <circle id="Oval" cx="299.810847" cy="6.48677966" r="5.6759322"></circle>
                <circle id="Oval" cx="7.29762712" cy="299" r="5.6759322"></circle>
                <circle id="Oval" cx="43.9884746" cy="262.309153" r="8.71661017"></circle>
                <circle id="Oval" cx="80.4766102" cy="225.821017" r="11.7572881"></circle>
                <circle id="Oval" cx="117.167458" cy="189.130169" r="15.000678"></circle>
                <circle id="Oval" cx="153.655593" cy="152.642034" r="18.0413559"></circle>
                <circle id="Oval" cx="336.298983" cy="43.1776271" r="8.71661017"></circle>
                <circle id="Oval" cx="299.810847" cy="79.6657627" r="11.1491525"></circle>
                <circle id="Oval" cx="263.322712" cy="116.153898" r="13.3789831"></circle>
                <circle id="Oval" cx="226.834576" cy="152.642034" r="15.8115254"></circle>
                <circle id="Oval" cx="153.655593" cy="225.821017" r="15.8115254"></circle>
                <circle id="Oval" cx="116.964746" cy="262.511864" r="13.3789831"></circle>
                <circle id="Oval" cx="80.2738983" cy="299.202712" r="11.1491525"></circle>
                <circle id="Oval" cx="43.5830508" cy="335.893559" r="8.71661017"></circle>
                <circle id="Oval" cx="372.989831" cy="79.6657627" r="11.7572881"></circle>
                <circle id="Oval" cx="336.298983" cy="116.153898" r="13.3789831"></circle>
                <circle id="Oval" cx="299.810847" cy="152.642034" r="15.000678"></circle>
                <circle id="Oval" cx="263.322712" cy="189.332881" r="16.6223729"></circle>
                <circle id="Oval" cx="153.452881" cy="299" r="15.000678"></circle>
                <circle id="Oval" cx="116.964746" cy="335.690847" r="13.3789831"></circle>
                <circle id="Oval" cx="80.2738983" cy="372.381695" r="11.7572881"></circle>
                <circle id="Oval" cx="409.477966" cy="116.35661" r="15.000678"></circle>
                <circle id="Oval" cx="372.989831" cy="152.844746" r="15.8115254"></circle>
                <circle id="Oval" cx="336.501695" cy="189.332881" r="16.6223729"></circle>
                <circle id="Oval" cx="300.013559" cy="225.821017" r="17.2305085"></circle>
                <circle id="Oval" cx="226.834576" cy="299" r="17.2305085"></circle>
                <circle id="Oval" cx="153.452881" cy="372.381695" r="15.8115254"></circle>
                <circle id="Oval" cx="116.762034" cy="409.072542" r="15.000678"></circle>
                <circle id="Oval" cx="263.322712" cy="335.488136" r="18.0413559"></circle>
                <circle id="Oval" cx="226.631864" cy="372.178983" r="18.0413559"></circle>
                <circle id="Oval" cx="153.452881" cy="445.560678" r="18.0413559"></circle>
                <circle id="Oval" cx="372.989831" cy="299" r="17.2305085"></circle>
                <circle id="Oval" cx="336.501695" cy="335.488136" r="18.0413559"></circle>
                <circle id="Oval" cx="299.810847" cy="372.178983" r="17.2305085"></circle>
                <circle id="Oval" cx="263.322712" cy="408.667119" r="16.6223729"></circle>
                <circle id="Oval" cx="226.631864" cy="445.357966" r="15.8115254"></circle>
                <circle id="Oval" cx="189.941017" cy="482.048814" r="15.000678"></circle>
                <circle id="Oval" cx="373.192542" cy="371.976271" r="18.0413559"></circle>
                <circle id="Oval" cx="336.501695" cy="408.667119" r="16.6223729"></circle>
                <circle id="Oval" cx="299.810847" cy="445.357966" r="15.000678"></circle>
                <circle id="Oval" cx="263.12" cy="481.846102" r="13.3789831"></circle>
                <circle id="Oval" cx="372.989831" cy="445.155254" r="15.8115254"></circle>
                <circle id="Oval" cx="336.298983" cy="481.846102" r="13.3789831"></circle>
                <circle id="Oval" cx="190.346441" cy="116.153898" r="15.000678"></circle>
                <circle id="Oval" cx="226.834576" cy="79.6657627" r="11.7572881"></circle>
                <circle id="Oval" cx="263.322712" cy="43.1776271" r="8.71661017"></circle>
                <circle id="Oval" cx="409.680678" cy="481.64339" r="15.000678"></circle>
            </g>
            <g id="dark" opacity="0.501075634" transform="translate(170.277966, 170.277966)" fill="#888888">
                <circle id="Oval" cx="19.8657627" cy="18.8522034" r="18.0413559"></circle>
                <circle id="Oval" cx="56.5566102" cy="55.5430508" r="18.0413559"></circle>
                <circle id="Oval" cx="19.8657627" cy="92.2338983" r="16.6223729"></circle>
                <circle id="Oval" cx="93.0447458" cy="92.0311864" r="18.0413559"></circle>
                <circle id="Oval" cx="19.6630508" cy="165.412881" r="16.6223729"></circle>
                <circle id="Oval" cx="239.2" cy="19.0549153" r="18.0413559"></circle>
                <circle id="Oval" cx="202.711864" cy="55.5430508" r="18.0413559"></circle>
                <circle id="Oval" cx="166.223729" cy="92.0311864" r="18.0413559"></circle>
                <circle id="Oval" cx="129.532881" cy="128.519322" r="18.0413559"></circle>
                <circle id="Oval" cx="19.6630508" cy="238.591864" r="18.0413559"></circle>
                <circle id="Oval" cx="239.2" cy="92.2338983" r="16.6223729"></circle>
                <circle id="Oval" cx="239.2" cy="165.210169" r="16.6223729"></circle>
                <circle id="Oval" cx="239.402712" cy="238.389153" r="18.0413559"></circle>
            </g>
        </g>
        <g id="bg" transform="translate(953.000000, 1060.000000)" fill="#FFFFFF">
            <path d="M12.1971653,173.084245 L10.9174892,174.622538 C9.59782334,172.962801 6.9984814,170.291028 4.95899772,168.347921 L6.19868388,167.092998 C8.27815743,168.995624 10.8774994,171.586433 12.1971653,173.084245 Z M9.51784358,197.130197 L14.8364971,193.365427 C14.9564667,193.891685 15.2363958,194.62035 15.4363452,194.944201 C8.1581878,200.368709 7.23842065,201.056893 6.75854214,201.745077 C6.51860289,201.340263 5.83877499,200.652079 5.47886611,200.368709 C6.158694,199.842451 7.67830929,198.425602 7.67830929,196.522976 L7.67830929,181.0186 L1,181.0186 L1,179.115974 L9.51784358,179.115974 L9.51784358,197.130197 Z M24.9139458,199.680525 L36.8709188,199.680525 L36.8709188,201.583151 L13.0769425,201.583151 L13.0769425,199.680525 L22.9544419,199.680525 L22.9544419,166.485777 L24.9139458,166.485777 L24.9139458,179.88512 L33.7117186,179.88512 L33.7117186,181.787746 L24.9139458,181.787746 L24.9139458,199.680525 Z M75.7410782,172.396061 L48.9878512,172.396061 C47.0283473,175.756018 44.7489243,178.71116 42.4695014,180.978118 C42.1095925,180.654267 41.2698051,180.047046 40.7899266,179.763676 C44.4689952,176.444201 47.9081245,171.262582 50.0675778,166 L51.947102,166.56674 C51.3472539,167.902626 50.7074158,169.278993 49.9875981,170.574398 L75.7410782,170.574398 L75.7410782,172.396061 Z M63.4241964,184.338074 L62.26449,185.673961 C60.6249051,184.095186 57.3457353,182.030635 54.5464439,180.775711 L55.7061503,179.601751 C58.5054417,180.816193 61.7846115,182.799781 63.4241964,184.338074 Z M53.226778,189.924508 L54.3464946,188.750547 C57.3057454,190.207877 60.9048342,192.555799 62.6243989,194.256018 L61.4247026,195.632385 C59.7051379,193.851204 56.2260187,191.462801 53.226778,189.924508 Z M47.2682865,195.875274 L68.9028094,195.875274 C69.1427487,193.972648 69.3426981,191.422319 69.5026576,188.143326 L48.5079727,188.143326 C48.068084,190.977024 47.6281954,193.648796 47.2682865,195.875274 Z M69.8625664,178.832604 L49.7876487,178.832604 C49.5077196,181.221007 49.1478107,183.771335 48.7879018,186.362144 L69.5426474,186.362144 C69.6626171,184.176149 69.7825867,181.666302 69.8625664,178.832604 Z M77.0207542,188.143326 L71.3821817,188.143326 C71.2222222,191.381838 71.0222728,193.932166 70.8223235,195.875274 L75.821058,195.875274 L75.821058,197.656455 L70.5823842,197.656455 C70.2624652,199.882932 69.8625664,201.097374 69.3826879,201.745077 C68.70286,202.554705 67.9430524,202.838074 66.8233359,202.919037 C65.7436092,202.959519 63.7841053,202.919037 61.8246014,202.757112 C61.7846115,202.271335 61.5846621,201.583151 61.304733,201.097374 C63.4641863,201.2593 65.4636801,201.299781 66.2234877,201.299781 C66.9433055,201.299781 67.3432043,201.218818 67.7031131,200.773523 C68.0230321,200.328228 68.382941,199.397155 68.6628702,197.656455 L45.0288535,197.656455 C45.508732,195.146608 46.1085801,191.746171 46.6684384,188.143326 L40.9098962,188.143326 L40.9098962,186.362144 L46.9083776,186.362144 C47.3882561,183.123632 47.8281448,179.763676 48.1480638,177.051422 L71.7820805,177.051422 C71.7820805,177.051422 71.7420906,177.86105 71.7420906,178.14442 C71.622121,181.301969 71.5421412,183.973742 71.4221716,186.362144 L77.0207542,186.362144 L77.0207542,188.143326 Z M97.9354594,202.919037 L97.9354594,177.456236 L99.8549734,177.456236 L99.8549734,202.919037 L97.9354594,202.919037 Z M99.335105,166.242888 L101.01468,167.052516 C100.734751,167.578775 100.374842,168.145514 99.9749431,168.712254 C104.453809,174.865427 110.172361,179.196937 117.290559,182.921225 C116.770691,183.285558 116.210833,184.014223 115.890914,184.580963 C109.012655,180.73523 103.534042,176.444201 98.8952164,170.210066 C94.6562895,176.039387 88.4578588,181.301969 82.0994685,184.540481 C81.7395596,184.014223 81.2196912,183.285558 80.659833,182.880744 C88.1779296,179.318381 95.3361174,172.962801 99.335105,166.242888 Z M138.005315,166.445295 L140.044799,166.445295 C140.004809,167.7407 140.004809,169.683807 139.80486,171.991247 C140.364718,176.039387 142.72412,194.539387 157.120476,201.016411 C156.600607,201.421225 156.040749,202.068928 155.72083,202.595186 C144.723614,197.49453 140.684637,185.592998 139.005062,178.022976 C137.445457,186.645514 133.3265,197.170678 122.489243,202.71663 C122.129334,202.230853 121.489496,201.664114 121.009618,201.299781 C137.845356,192.960613 137.925335,172.234136 138.005315,166.445295 Z M184.193622,200.125821 L192.351557,200.125821 C194.551,200.125821 194.870919,199.113786 195.070868,193.405908 C195.590737,193.770241 196.390534,194.094092 196.950392,194.215536 C196.630473,200.40919 195.990635,202.028446 192.471526,202.028446 L184.113642,202.028446 C180.514553,202.028446 179.514806,201.2593 179.514806,198.344639 L179.514806,183.164114 L178.035181,183.164114 C176.435586,191.179431 172.396608,198.870897 162.07922,203 C161.799291,202.514223 161.199443,201.785558 160.759555,201.421225 C170.597064,197.696937 174.476082,190.57221 176.155657,183.164114 L161.199443,183.164114 L161.199443,181.261488 L176.475576,181.261488 C177.115414,177.739606 177.275373,174.177243 177.355353,170.979212 L163.718805,170.979212 L163.718805,169.076586 L194.31106,169.076586 L194.31106,170.979212 L179.234877,170.979212 C179.114908,174.217724 178.954948,177.739606 178.3551,181.261488 L196.630473,181.261488 L196.630473,183.164114 L181.43432,183.164114 L181.43432,198.38512 C181.43432,199.761488 181.914199,200.125821 184.193622,200.125821 Z M212.906353,167.862144 L214.146039,168.671772 C212.906353,171.910284 211.306758,175.83698 209.867122,179.075492 C213.026322,182.556893 213.82612,185.592998 213.82612,188.183807 C213.82612,190.086433 213.426221,191.786652 212.386484,192.515317 C211.906606,192.87965 211.186788,193.122538 210.426981,193.203501 C209.587193,193.284464 208.547456,193.284464 207.707669,193.243982 C207.667679,192.717724 207.46773,191.989059 207.107821,191.462801 C208.147558,191.503282 209.067325,191.543764 209.787142,191.503282 C210.307011,191.462801 210.786889,191.341357 211.106808,191.098468 C211.826626,190.612691 212.066565,189.317287 212.066565,188.062363 C212.066565,185.673961 211.186788,182.799781 207.987598,179.318381 C209.387244,176.12035 210.786889,172.557987 211.746646,169.76477 L204.708428,169.76477 L204.708428,202.919037 L202.948874,202.919037 L202.948874,167.943107 L212.586434,167.943107 L212.906353,167.862144 Z M218.504935,177.537199 L218.504935,183.609409 L232.021514,183.609409 L232.021514,177.537199 L218.504935,177.537199 Z M232.021514,169.926696 L218.504935,169.926696 L218.504935,175.796499 L232.021514,175.796499 L232.021514,169.926696 Z M234.940774,187.252735 L236.30043,188.54814 C234.140977,190.450766 231.061757,192.353392 228.622374,193.810722 C230.781827,197.008753 233.581119,199.5186 237.140218,200.854486 C236.740319,201.299781 236.100481,202.028446 235.820552,202.554705 C229.342192,199.680525 225.263225,193.486871 223.223741,185.390591 L218.504935,185.390591 L218.504935,199.923414 L226.422931,197.858862 C226.422931,198.38512 226.462921,199.23523 226.542901,199.640044 C218.065047,202.068928 216.98532,202.392779 216.305492,202.878556 C216.145533,202.43326 215.745634,201.623632 215.385725,201.137856 C215.905594,200.894967 216.625411,200.247265 216.625411,198.66849 L216.625411,168.145514 L233.861048,168.145514 L233.861048,185.390591 L224.983295,185.390591 C225.623133,187.940919 226.58289,190.28884 227.742597,192.353392 C230.141989,190.936543 233.10124,188.83151 234.940774,187.252735 Z M259.694508,179.804158 L247.537585,179.804158 L247.537585,190.734136 L259.694508,190.734136 L259.694508,179.804158 Z M261.614022,192.636761 L247.537585,192.636761 L247.537585,195.915755 L245.658061,195.915755 L245.658061,177.901532 L261.614022,177.901532 L261.614022,192.636761 Z M276.530246,169.238512 L276.530246,171.141138 L271.491521,171.141138 L271.491521,199.640044 C271.491521,201.380744 271.011643,202.149891 269.731967,202.514223 C268.372311,202.878556 265.652999,202.878556 261.773981,202.878556 C261.614022,202.271335 261.254113,201.340263 260.934194,200.733042 C264.373323,200.854486 267.492534,200.814004 268.452291,200.773523 C269.252088,200.69256 269.532017,200.449672 269.532017,199.599562 L269.532017,171.141138 L241.299165,171.141138 L241.299165,169.238512 L276.530246,169.238512 Z M312.841053,183.690372 L305.202987,183.690372 C301.923817,183.690372 300.96406,183.04267 300.96406,180.411379 L300.96406,166.242888 L302.843584,166.242888 L302.843584,173.610503 C306.642622,172.396061 310.841559,170.857768 313.360921,169.562363 L314.720577,171.019694 C311.521387,172.477024 306.922551,174.055799 302.843584,175.229759 L302.843584,180.370897 C302.843584,181.585339 303.243483,181.868709 305.242976,181.868709 L312.721083,181.868709 C314.400658,181.868709 314.720577,181.140044 314.880537,176.929978 C315.360415,177.253829 316.080233,177.537199 316.680081,177.699125 C316.400152,182.435449 315.800304,183.690372 312.841053,183.690372 Z M285.008099,192.677243 L294.965578,192.677243 L294.965578,188.183807 L285.008099,188.183807 L285.008099,192.677243 Z M294.965578,182.233042 L285.008099,182.233042 L285.008099,186.52407 L294.965578,186.52407 L294.965578,182.233042 Z M296.845103,180.492341 L296.845103,200.247265 C296.845103,201.54267 296.565173,202.109409 295.685396,202.473742 C294.725639,202.797593 293.006074,202.838074 290.446722,202.838074 C290.366743,202.271335 290.046824,201.502188 289.766894,200.935449 C291.966338,201.016411 293.725892,200.97593 294.28575,200.935449 C294.845609,200.935449 294.965578,200.814004 294.965578,200.287746 L294.965578,194.33698 L285.008099,194.33698 L285.008099,202.878556 L283.168565,202.878556 L283.168565,180.492341 L296.845103,180.492341 Z M291.526449,169.319475 L293.046064,168.631291 C295.245507,171.343545 297.60491,174.986871 298.484687,177.375274 L296.925082,178.14442 C296.645153,177.496718 296.285244,176.768053 295.885345,175.958425 C284.128322,176.768053 282.928626,176.929978 282.168818,177.213348 C282.088838,176.768053 281.768919,175.756018 281.52898,175.270241 C282.088838,175.189278 282.648697,174.582057 283.288535,173.650985 C284.048342,172.841357 286.367755,169.440919 287.807391,166.161926 L289.726905,166.890591 C288.12731,169.845733 286.247785,172.800875 284.408251,175.027352 L295.005568,174.420131 C293.965831,172.679431 292.726145,170.857768 291.526449,169.319475 Z M305.322956,200.773523 L312.961023,200.773523 C314.760567,200.773523 315.040496,199.923414 315.240445,195.146608 C315.720324,195.510941 316.440142,195.794311 317,195.875274 C316.720071,201.218818 316.120223,202.514223 313.041002,202.514223 L305.282966,202.514223 C301.923817,202.514223 300.96406,201.866521 300.96406,199.194748 L300.96406,185.026258 L302.883574,185.026258 L302.883574,191.948578 C306.922551,190.734136 311.441407,189.11488 313.960769,187.495624 L315.240445,188.993435 C312.161225,190.85558 307.162491,192.434354 302.883574,193.608315 L302.883574,199.23523 C302.883574,200.449672 303.283473,200.773523 305.322956,200.773523 Z" id="让每个人无限可能"></path>
            <path d="M48.8036484,140.403017 L60.6896983,140.403017 C64.2318985,140.403017 64.7829075,138.672414 65.2552008,128.288793 C66.9082277,129.626078 70.2142813,130.884698 72.2608859,131.356681 C71.3162991,144.178879 69.1909789,147.561422 61.2407072,147.561422 L47.8590617,147.561422 C39.0429187,147.561422 36.7601674,145.201509 36.7601674,137.099138 L36.7601674,112.162716 L36.0517274,112.162716 C32.8243893,127.266164 24.8741176,141.346983 4.9590804,149.449353 C3.9357781,147.561422 1.88917349,144.886853 0,143.313578 C17.8684326,136.548491 25.3464109,124.90625 28.573749,112.162716 L1.18073343,112.162716 L1.18073343,105.00431 L29.9119135,105.00431 C30.6990692,99.7338362 30.9352158,94.5420259 31.092647,89.4288793 L5.90366715,89.4288793 L5.90366715,82.3491379 L67.1443743,82.3491379 L67.1443743,89.4288793 L38.5706254,89.4288793 C38.3344787,94.5420259 38.098332,99.7338362 37.3898919,105.00431 L71.5524458,105.00431 L71.5524458,112.162716 L44.3955769,112.162716 L44.3955769,137.020474 C44.3955769,139.931034 45.104017,140.403017 48.8036484,140.403017 Z M97.4695446,98.6325431 L97.4695446,105.948276 L113.527519,105.948276 L113.527519,98.6325431 L97.4695446,98.6325431 Z M97.4695446,85.8103448 L97.4695446,92.96875 L113.527519,92.96875 L113.527519,85.8103448 L97.4695446,85.8103448 Z M137.142188,92.96875 L137.142188,85.8103448 L120.926782,85.8103448 L120.926782,92.96875 L137.142188,92.96875 Z M137.142188,105.948276 L137.142188,98.6325431 L120.926782,98.6325431 L120.926782,105.948276 L137.142188,105.948276 Z M144.698882,111.926724 L130.372649,111.926724 C136.118885,117.43319 144.777597,121.917026 153.672456,124.198276 C152.019429,125.692888 149.815393,128.524784 148.713375,130.412716 C143.518148,128.760776 138.480352,126.243534 133.91485,123.25431 L133.91485,149.292026 L126.358156,149.292026 L126.358156,121.99569 L132.183107,121.99569 C128.247329,119.085129 124.626413,115.623922 121.871369,111.926724 L113.448804,111.926724 C110.615043,115.545259 106.994128,119.006466 102.979634,121.917026 L109.513026,121.917026 L109.513026,126.951509 C109.513026,134.424569 107.623852,144.021552 92.1168864,150 C91.2510152,148.112069 88.8108328,145.4375 87.157806,144.021552 C100.539451,139.380388 102.035047,132.221983 102.035047,126.715517 L102.035047,122.625 C97.1546823,126.007543 91.8020241,128.760776 86.3706503,130.727371 C85.2686325,128.83944 83.1433123,126.164871 81.4902855,124.670259 C89.9128506,122.231681 98.650278,117.511853 104.47523,111.926724 L90.2277129,111.926724 L90.2277129,79.8318966 L144.698882,79.8318966 L144.698882,111.926724 Z M193.128631,119.793103 L188.563129,125.850216 C187.067533,123.647629 184.076342,120.107759 181.400012,117.039871 L181.400012,149.37069 L174.315612,149.37069 L174.315612,118.849138 C171.088274,121.99569 167.624789,124.748922 164.318736,126.872845 C163.767727,124.90625 162.193415,121.051724 161.248829,119.635776 C169.513963,114.837284 177.857812,106.262931 182.895608,97.137931 L163.452864,97.137931 L163.452864,90.5301724 L178.330106,90.5301724 C176.913225,87.6196121 173.922034,83.2144397 171.245705,80.2252155 L176.913225,77 C179.825701,80.0678879 182.974324,84.237069 184.312488,87.0689655 L178.644968,90.5301724 L186.752671,90.5301724 L188.01212,90.2155172 L191.947898,92.96875 C189.665146,98.7898707 186.359093,104.375 182.580746,109.488147 C185.729368,112.320043 191.55432,118.141164 193.128631,119.793103 Z M216.900731,139.459052 L234.533017,139.459052 L234.533017,146.617457 L189.586431,146.617457 L189.586431,139.459052 L209.422753,139.459052 L209.422753,108.229526 L193.128631,108.229526 L193.128631,101.228448 L209.422753,101.228448 L209.422753,77.3146552 L216.900731,77.3146552 L216.900731,101.228448 L232.801274,101.228448 L232.801274,108.229526 L216.900731,108.229526 L216.900731,139.459052 Z M254.940026,140.167026 L315,140.167026 L315,147.168103 L247.77691,147.168103 L247.77691,81.0905172 L313.032111,81.0905172 L313.032111,88.0915948 L254.940026,88.0915948 L254.940026,140.167026 Z M306.577435,130.176724 L300.752483,135.525862 C296.974136,130.884698 291.149185,124.984914 284.537078,118.770474 C278.003686,125.378233 270.998001,131.042026 263.9136,135.525862 C262.654151,134.109914 259.820391,131.278017 258.167364,130.019397 C265.566627,125.850216 272.808459,120.34375 279.34185,114.050647 C273.123321,108.465517 266.747361,102.959052 260.922409,98.3178879 L266.117636,93.9913793 C271.706441,98.3178879 278.082401,103.588362 284.222215,108.9375 C289.260011,103.431034 293.668083,97.53125 297.210283,91.3168103 L304.058537,94.0700431 C299.965328,100.992457 295.006247,107.521552 289.574873,113.578664 C296.344412,119.557112 302.484226,125.456897 306.577435,130.176724 Z" id="无界社区"></path>
            <path d="M1,58 L1,0 L11.464716,0 L22.0867962,29.3152174 C23.4243914,33.1766304 24.6046226,37.1168478 25.9422179,41.0570652 L26.3356282,41.0570652 C27.6732235,37.1168478 28.7747726,33.1766304 30.1123678,29.3152174 L40.5770838,0 L51.1204819,0 L51.1204819,58 L42.6228178,58 L42.6228178,29.3152174 C42.6228178,24.1141304 43.3309565,16.6277174 43.8030489,11.3478261 L43.4883206,11.3478261 L38.8460782,24.7445652 L28.7747726,52.4048913 L23.1096631,52.4048913 L12.9596754,24.7445652 L8.39611507,11.3478261 L8.08138677,11.3478261 C8.47479715,16.6277174 9.18293582,24.1141304 9.18293582,29.3152174 L9.18293582,58 L1,58 Z M76.1413819,58 L76.1413819,0 L85.2685026,0 L85.2685026,58 L76.1413819,58 Z M103.916154,58 L120.518072,28.0543478 L104.939021,0 L115.089009,0 L122.091714,13.5543478 C123.507991,16.2336957 124.766904,18.8342391 126.49791,22.3016304 L126.89132,22.3016304 C128.38628,18.8342391 129.487829,16.2336957 130.825424,13.5543478 L137.670765,0 L147.269978,0 L131.690927,28.5271739 L148.371527,58 L138.221539,58 L130.589378,43.5788043 C129.094418,40.6630435 127.599459,37.6684783 125.789771,34.1222826 L125.475043,34.1222826 C123.822719,37.6684783 122.406442,40.6630435 120.990165,43.5788043 L113.59405,58 L103.916154,58 Z M167.019179,58 L167.019179,0 L176.146299,0 L176.146299,50.2771739 L200.616425,50.2771739 L200.616425,58 L167.019179,58 Z M229.414064,34.2798913 L245.229162,34.2798913 L242.947381,26.4782609 C240.980329,20.173913 239.249324,13.7119565 237.439636,7.17119565 L237.124908,7.17119565 C235.472584,13.7907609 233.662896,20.173913 231.774527,26.4782609 L229.414064,34.2798913 Z M252.310548,58 L247.43226,41.451087 L227.289648,41.451087 L222.332678,58 L213.048193,58 L232.246619,0 L242.790017,0 L261.988444,58 L252.310548,58 Z M279.455864,58 L279.455864,0 L297.395377,0 C309.276371,0 317.852717,3.7826087 317.852717,14.263587 C317.852717,19.7798913 314.784116,25.0597826 309.591099,26.7934783 L309.591099,27.1875 C316.200393,28.6059783 321,33.0978261 321,40.9782609 C321,52.4836957 311.636833,58 298.811655,58 L279.455864,58 Z M288.582985,24.1929348 L296.37251,24.1929348 C305.184903,24.1929348 308.88296,20.8831522 308.88296,15.4456522 C308.88296,9.37771739 304.791493,7.0923913 296.608557,7.0923913 L288.582985,7.0923913 L288.582985,24.1929348 Z M288.582985,50.8288043 L297.788788,50.8288043 C306.837226,50.8288043 312.030243,47.5978261 312.030243,40.5054348 C312.030243,33.9646739 306.994591,31.1277174 297.788788,31.1277174 L288.582985,31.1277174 L288.582985,50.8288043 Z" id="MIXLAB"></path>
        </g>
        <rect id="detail" x="126" y="516" width="699" height="714"></rect>
        <rect id="name" x="502" y="186" width="699" height="81"></rect>
        <rect id="title" x="502" y="281" width="699" height="81"></rect>
        <rect id="avatar" x="127" y="109" width="326" height="326"></rect>
    </g>
</svg>