<?xml version="1.0" encoding="UTF-8"?>
<svg width="1340px" height="1340px" viewBox="0 0 1340 1340" version="1.1" xmlns="http://www.w3.org/2000/svg" xmlns:xlink="http://www.w3.org/1999/xlink">
    <!-- Generator: Sketch 49.2 (51160) - http://www.bohemiancoding.com/sketch -->
    <title>today_card</title>
    <desc>Created with Sketch.</desc>
    <defs></defs>
    <g id="today_card" stroke="none" stroke-width="1" fill="none" fill-rule="evenodd">
        <g id="logo" transform="translate(1084.000000, 1120.000000)" fill-rule="nonzero">
            <g id="light" fill="#FFFFFF">
                <circle id="Oval" cx="74.7020339" cy="1.61627119" r="1.41423729"></circle>
                <circle id="Oval" cx="147.535254" cy="74.5" r="1.41423729"></circle>
                <circle id="Oval" cx="1.81830508" cy="74.5" r="1.41423729"></circle>
                <circle id="Oval" cx="10.960339" cy="65.3579661" r="2.17186441"></circle>
                <circle id="Oval" cx="20.0518644" cy="56.2664407" r="2.92949153"></circle>
                <circle id="Oval" cx="29.1938983" cy="47.1244068" r="3.73762712"></circle>
                <circle id="Oval" cx="38.2854237" cy="38.0328814" r="4.49525424"></circle>
                <circle id="Oval" cx="83.7935593" cy="10.7583051" r="2.17186441"></circle>
                <circle id="Oval" cx="74.7020339" cy="19.8498305" r="2.7779661"></circle>
                <circle id="Oval" cx="65.6105085" cy="28.9413559" r="3.33355932"></circle>
                <circle id="Oval" cx="56.5189831" cy="38.0328814" r="3.93966102"></circle>
                <circle id="Oval" cx="38.2854237" cy="56.2664407" r="3.93966102"></circle>
                <circle id="Oval" cx="29.1433898" cy="65.4084746" r="3.33355932"></circle>
                <circle id="Oval" cx="20.0013559" cy="74.5505085" r="2.7779661"></circle>
                <circle id="Oval" cx="10.859322" cy="83.6925424" r="2.17186441"></circle>
                <circle id="Oval" cx="92.9355932" cy="19.8498305" r="2.92949153"></circle>
                <circle id="Oval" cx="83.7935593" cy="28.9413559" r="3.33355932"></circle>
                <circle id="Oval" cx="74.7020339" cy="38.0328814" r="3.73762712"></circle>
                <circle id="Oval" cx="65.6105085" cy="47.1749153" r="4.14169492"></circle>
                <circle id="Oval" cx="38.2349153" cy="74.5" r="3.73762712"></circle>
                <circle id="Oval" cx="29.1433898" cy="83.6420339" r="3.33355932"></circle>
                <circle id="Oval" cx="20.0013559" cy="92.7840678" r="2.92949153"></circle>
                <circle id="Oval" cx="102.027119" cy="28.9918644" r="3.73762712"></circle>
                <circle id="Oval" cx="92.9355932" cy="38.0833898" r="3.93966102"></circle>
                <circle id="Oval" cx="83.8440678" cy="47.1749153" r="4.14169492"></circle>
                <circle id="Oval" cx="74.7525424" cy="56.2664407" r="4.29322034"></circle>
                <circle id="Oval" cx="56.5189831" cy="74.5" r="4.29322034"></circle>
                <circle id="Oval" cx="38.2349153" cy="92.7840678" r="3.93966102"></circle>
                <circle id="Oval" cx="29.0928814" cy="101.926102" r="3.73762712"></circle>
                <circle id="Oval" cx="111.118644" cy="38.0833898" r="4.49525424"></circle>
                <circle id="Oval" cx="65.6105085" cy="83.5915254" r="4.49525424"></circle>
                <circle id="Oval" cx="56.4684746" cy="92.7335593" r="4.49525424"></circle>
                <circle id="Oval" cx="38.2349153" cy="111.017627" r="4.49525424"></circle>
                <circle id="Oval" cx="120.260678" cy="47.1749153" r="3.73762712"></circle>
                <circle id="Oval" cx="111.169153" cy="56.2664407" r="3.93966102"></circle>
                <circle id="Oval" cx="92.9355932" cy="74.5" r="4.29322034"></circle>
                <circle id="Oval" cx="83.8440678" cy="83.5915254" r="4.49525424"></circle>
                <circle id="Oval" cx="74.7020339" cy="92.7335593" r="4.29322034"></circle>
                <circle id="Oval" cx="65.6105085" cy="101.825085" r="4.14169492"></circle>
                <circle id="Oval" cx="56.4684746" cy="110.967119" r="3.93966102"></circle>
                <circle id="Oval" cx="47.3264407" cy="120.109153" r="3.73762712"></circle>
                <circle id="Oval" cx="129.352203" cy="56.2664407" r="2.92949153"></circle>
                <circle id="Oval" cx="120.260678" cy="65.4084746" r="3.33355932"></circle>
                <circle id="Oval" cx="111.169153" cy="74.5" r="3.73762712"></circle>
                <circle id="Oval" cx="92.9861017" cy="92.6830508" r="4.49525424"></circle>
                <circle id="Oval" cx="83.8440678" cy="101.825085" r="4.14169492"></circle>
                <circle id="Oval" cx="74.7020339" cy="110.967119" r="3.73762712"></circle>
                <circle id="Oval" cx="65.56" cy="120.058644" r="3.33355932"></circle>
                <circle id="Oval" cx="56.4179661" cy="129.200678" r="2.92949153"></circle>
                <circle id="Oval" cx="138.443729" cy="65.4084746" r="2.17186441"></circle>
                <circle id="Oval" cx="129.352203" cy="74.5" r="2.7779661"></circle>
                <circle id="Oval" cx="120.260678" cy="83.5915254" r="3.33355932"></circle>
                <circle id="Oval" cx="111.169153" cy="92.6830508" r="3.93966102"></circle>
                <circle id="Oval" cx="92.9355932" cy="110.91661" r="3.93966102"></circle>
                <circle id="Oval" cx="83.7935593" cy="120.058644" r="3.33355932"></circle>
                <circle id="Oval" cx="74.6515254" cy="129.200678" r="2.7779661"></circle>
                <circle id="Oval" cx="65.5094915" cy="138.292203" r="2.17186441"></circle>
                <circle id="Oval" cx="111.169153" cy="110.91661" r="4.49525424"></circle>
                <circle id="Oval" cx="47.4274576" cy="28.9413559" r="3.73762712"></circle>
                <circle id="Oval" cx="56.5189831" cy="19.8498305" r="2.92949153"></circle>
                <circle id="Oval" cx="65.6105085" cy="10.7583051" r="2.17186441"></circle>
                <circle id="Oval" cx="74.7525424" cy="147.383729" r="1.41423729"></circle>
                <circle id="Oval" cx="83.8440678" cy="138.241695" r="2.17186441"></circle>
                <circle id="Oval" cx="92.9355932" cy="129.150169" r="2.92949153"></circle>
                <circle id="Oval" cx="102.077627" cy="120.008136" r="3.73762712"></circle>
                <circle id="Oval" cx="120.311186" cy="101.825085" r="3.73762712"></circle>
                <circle id="Oval" cx="129.402712" cy="92.7335593" r="2.92949153"></circle>
                <circle id="Oval" cx="138.494237" cy="83.6420339" r="2.17186441"></circle>
            </g>
            <g id="dark" opacity="0.501075634" transform="translate(42.427119, 42.427119)" fill="#888888">
                <circle id="Oval" cx="4.94983051" cy="4.69728814" r="4.49525424"></circle>
                <circle id="Oval" cx="14.0918644" cy="13.839322" r="4.49525424"></circle>
                <circle id="Oval" cx="4.94983051" cy="22.9813559" r="4.14169492"></circle>
                <circle id="Oval" cx="23.1833898" cy="22.9308475" r="4.49525424"></circle>
                <circle id="Oval" cx="4.89932203" cy="41.2149153" r="4.14169492"></circle>
                <circle id="Oval" cx="59.6" cy="4.74779661" r="4.49525424"></circle>
                <circle id="Oval" cx="50.5084746" cy="13.839322" r="4.49525424"></circle>
                <circle id="Oval" cx="41.4169492" cy="22.9308475" r="4.49525424"></circle>
                <circle id="Oval" cx="32.2749153" cy="32.0223729" r="4.49525424"></circle>
                <circle id="Oval" cx="4.89932203" cy="59.4484746" r="4.49525424"></circle>
                <circle id="Oval" cx="59.6" cy="22.9813559" r="4.14169492"></circle>
                <circle id="Oval" cx="59.6" cy="41.1644068" r="4.14169492"></circle>
                <circle id="Oval" cx="59.6505085" cy="59.3979661" r="4.49525424"></circle>
            </g>
        </g>
        <path d="M851.924,1055.892 L851.924,1064.172 L841.016,1064.172 L841.016,1055.892 L842.42,1055.892 L842.42,1062.66 L845.912,1062.66 L845.912,1053.012 L847.352,1053.012 L847.352,1062.66 L850.52,1062.66 L850.52,1055.892 L851.924,1055.892 Z M852.068,1067.304 L852.068,1068.852 L840.116,1068.852 L840.116,1067.304 L852.068,1067.304 Z M837.452,1053.012 L839.072,1053.624 C837.416,1056.396 834.752,1059.528 832.304,1061.652 C832.088,1061.292 831.548,1060.644 831.26,1060.32 C833.564,1058.412 836.12,1055.496 837.452,1053.012 Z M838.316,1059.996 L839.9,1060.536 C839.144,1062.084 838.208,1063.632 837.272,1065.144 L837.272,1085.556 L835.652,1085.556 L835.652,1067.52 C834.464,1069.176 833.132,1070.688 831.908,1071.948 C831.692,1071.624 831.116,1070.868 830.756,1070.508 C833.564,1067.88 836.444,1063.884 838.316,1059.996 Z M850.736,1078.572 L853.688,1076.556 C853.832,1076.988 854.12,1077.6 854.264,1077.852 C850.232,1080.768 849.548,1081.308 849.044,1081.956 C848.936,1081.524 848.54,1080.768 848.288,1080.372 C848.684,1080.156 849.26,1079.652 849.26,1078.248 L849.26,1073.208 L843.464,1073.208 L843.464,1075.944 C843.464,1078.86 842.888,1082.784 840.188,1085.628 C839.972,1085.268 839.36,1084.656 839.036,1084.44 C841.448,1081.848 841.88,1078.5 841.88,1075.908 L841.88,1071.696 L850.736,1071.696 L850.736,1078.572 Z M861.464,1062.192 L856.1,1062.192 C855.992,1062.768 855.848,1063.308 855.704,1063.884 C856.244,1067.952 857.072,1071.876 858.296,1075.26 C859.916,1071.624 860.852,1067.268 861.464,1062.192 Z M864.308,1062.192 L863.048,1062.192 C862.292,1068.24 861.104,1073.172 859.052,1077.204 C860.42,1080.336 862.184,1082.784 864.452,1084.188 C864.056,1084.512 863.552,1085.088 863.264,1085.52 C861.14,1084.044 859.448,1081.74 858.152,1078.896 C856.496,1081.56 854.408,1083.828 851.636,1085.7 C851.492,1085.376 850.916,1084.692 850.556,1084.404 C853.508,1082.532 855.74,1080.084 857.396,1077.06 C856.244,1074.108 855.416,1070.652 854.84,1066.944 C854.408,1068.132 853.94,1069.248 853.4,1070.256 C853.148,1069.932 852.5,1069.356 852.068,1069.068 C854.192,1065.144 855.2,1059.204 855.848,1053.048 L857.504,1053.264 C857.216,1055.82 856.892,1058.268 856.424,1060.608 L864.308,1060.608 L864.308,1062.192 Z M889.724,1057.692 L888.068,1058.412 C887.6,1057.152 886.52,1055.172 885.512,1053.696 L887.06,1053.048 C888.104,1054.56 889.184,1056.468 889.724,1057.692 Z M875.684,1053.156 L877.268,1053.588 C876.368,1056.216 875.252,1058.808 873.992,1061.22 L873.992,1085.736 L872.372,1085.736 L872.372,1064.1 C871.148,1066.116 869.816,1067.952 868.484,1069.5 C868.304,1069.14 867.764,1068.312 867.404,1067.988 C870.752,1064.352 873.812,1058.772 875.684,1053.156 Z M895.52,1075.872 L880.904,1075.872 L880.904,1082.568 L895.52,1082.568 L895.52,1075.872 Z M879.32,1085.7 L879.32,1074.36 L897.14,1074.36 L897.14,1085.592 L895.52,1085.592 L895.52,1084.08 L880.904,1084.08 L880.904,1085.7 L879.32,1085.7 Z M879.788,1070.688 L879.788,1069.176 L896.816,1069.176 L896.816,1070.688 L879.788,1070.688 Z M896.816,1064.172 L896.816,1065.684 L879.788,1065.684 L879.788,1064.172 L896.816,1064.172 Z M877.124,1059.168 L899.768,1059.168 L899.768,1060.716 L877.124,1060.716 L877.124,1059.168 Z M914.24,1054.236 L916.04,1054.74 C913.592,1060.572 909.812,1065.936 905.744,1069.464 C905.384,1069.14 904.628,1068.564 904.16,1068.276 C908.336,1064.964 912.044,1059.744 914.24,1054.236 Z M924.356,1073.028 L925.904,1072.272 C929.18,1076.052 932.996,1081.092 934.796,1084.332 L933.176,1085.232 C932.528,1084.116 931.664,1082.712 930.656,1081.272 C910.856,1082.46 909.164,1082.568 908.084,1082.928 C907.976,1082.532 907.652,1081.596 907.4,1081.092 C908.192,1080.912 909.272,1079.688 910.532,1077.996 C911.972,1076.376 916.364,1070.076 919.352,1064.136 L921.152,1064.928 C917.984,1070.616 914.384,1076.376 910.676,1080.696 L929.54,1079.652 C927.884,1077.384 926.048,1075.008 924.356,1073.028 Z M923.708,1054.632 L925.364,1053.948 C927.92,1059.168 932.672,1065.144 936.488,1068.06 C936.02,1068.42 935.408,1069.068 935.048,1069.5 C931.232,1066.26 926.48,1060.068 923.708,1054.632 Z M956.504,1078.428 L955.244,1079.688 C953.876,1078.032 951.32,1075.512 948.872,1073.496 C947.396,1078.572 945.056,1082.496 941.528,1085.376 C941.204,1085.088 940.448,1084.584 940.016,1084.296 C945.2,1080.444 947.612,1074.18 948.62,1065.756 L950.384,1065.936 C950.096,1068.06 949.772,1070.04 949.304,1071.84 C951.968,1073.964 955.064,1076.664 956.504,1078.428 Z M961.58,1066.008 L963.308,1066.188 C963.128,1067.808 962.912,1069.356 962.66,1070.832 C963.992,1075.44 966.908,1081.2 972.092,1083.972 C971.696,1084.296 971.192,1084.944 970.904,1085.412 C966.404,1082.784 963.596,1077.924 962.048,1073.748 C960.68,1078.932 958.484,1082.82 954.884,1085.7 C954.596,1085.412 953.84,1084.836 953.408,1084.548 C958.664,1080.804 960.752,1074.612 961.58,1066.008 Z M956.108,1052.94 L957.764,1053.624 C957.476,1054.2 957.152,1054.776 956.828,1055.388 C959.96,1059.96 966.188,1064.28 972.38,1065.936 C971.948,1066.332 971.408,1067.052 971.12,1067.556 C965.216,1065.72 959.384,1061.472 955.964,1056.648 C952.58,1061.58 947.324,1065.468 941.132,1067.664 C940.808,1067.232 940.376,1066.512 939.908,1066.116 C947.18,1063.776 953.228,1059.024 956.108,1052.94 Z M1001.252,1061.976 L1001.252,1056.216 L982.676,1056.216 L982.676,1061.976 L1001.252,1061.976 Z M1003.016,1054.632 L1003.016,1063.596 L980.984,1063.596 L980.984,1054.632 L1003.016,1054.632 Z M1007.372,1069.032 L986.204,1069.032 C985.7,1070.58 985.124,1072.344 984.548,1073.784 L1002.98,1073.784 C1002.98,1073.784 1002.944,1074.432 1002.872,1074.684 C1001.9,1081.02 1001,1083.72 999.668,1084.8 C998.948,1085.412 998.264,1085.556 997.04,1085.592 C995.924,1085.628 993.512,1085.592 991.028,1085.412 C990.992,1084.872 990.776,1084.224 990.416,1083.72 C993.044,1084.008 995.636,1084.044 996.608,1084.044 C997.472,1084.044 997.904,1084.008 998.3,1083.72 C999.308,1082.928 1000.136,1080.588 1000.964,1075.44 L983,1075.44 L983,1075.404 L981.92,1075.404 C982.712,1073.712 983.612,1071.192 984.296,1069.032 L976.52,1069.032 L976.52,1067.412 L1007.372,1067.412 L1007.372,1069.032 Z M1013.816,1083 L1013.816,1056.756 L1020.008,1056.756 C1028.072,1056.756 1032.032,1061.76 1032.032,1069.788 C1032.032,1077.816 1028.072,1083 1020.044,1083 L1013.816,1083 Z M1015.976,1081.164 L1019.792,1081.164 C1026.704,1081.164 1029.764,1076.592 1029.764,1069.788 C1029.764,1062.984 1026.704,1058.556 1019.792,1058.556 L1015.976,1058.556 L1015.976,1081.164 Z M1045.136,1083.468 C1040.204,1083.468 1036.208,1079.724 1036.208,1073.424 C1036.208,1067.196 1040.276,1063.308 1044.632,1063.308 C1049.276,1063.308 1052.048,1066.62 1052.048,1072.236 C1052.048,1072.776 1052.012,1073.28 1051.94,1073.748 L1038.332,1073.748 C1038.44,1078.428 1041.212,1081.704 1045.352,1081.704 C1047.404,1081.704 1049.024,1081.056 1050.464,1080.048 L1051.256,1081.596 C1049.708,1082.568 1047.908,1083.468 1045.136,1083.468 Z M1038.332,1072.092 L1050.14,1072.092 C1050.14,1067.448 1048.016,1065.108 1044.668,1065.108 C1041.536,1065.108 1038.728,1067.7 1038.332,1072.092 Z M1061.876,1083.468 C1059.068,1083.468 1056.548,1082.28 1054.82,1080.84 L1055.936,1079.328 C1057.592,1080.732 1059.356,1081.74 1061.984,1081.74 C1064.9,1081.74 1066.376,1080.084 1066.376,1078.104 C1066.376,1075.836 1063.964,1074.792 1061.732,1074 C1058.888,1072.992 1055.72,1071.804 1055.72,1068.492 C1055.72,1065.684 1057.988,1063.308 1062.02,1063.308 C1064.108,1063.308 1066.16,1064.208 1067.6,1065.36 L1066.52,1066.8 C1065.224,1065.828 1063.82,1065.072 1061.948,1065.072 C1059.104,1065.072 1057.808,1066.656 1057.808,1068.384 C1057.808,1070.508 1060.04,1071.3 1062.272,1072.128 C1065.224,1073.244 1068.464,1074.288 1068.464,1077.996 C1068.464,1080.948 1066.124,1083.468 1061.876,1083.468 Z M1073.432,1083 L1073.432,1063.812 L1075.52,1063.812 L1075.52,1083 L1073.432,1083 Z M1074.512,1059.312 C1073.54,1059.312 1072.748,1058.628 1072.748,1057.656 C1072.748,1056.576 1073.54,1055.928 1074.512,1055.928 C1075.448,1055.928 1076.276,1056.576 1076.276,1057.656 C1076.276,1058.628 1075.448,1059.312 1074.512,1059.312 Z M1088.984,1092.144 C1084.196,1092.144 1081.064,1090.128 1081.064,1086.888 C1081.064,1085.196 1082.18,1083.504 1083.944,1082.316 L1083.944,1082.136 C1082.972,1081.56 1082.216,1080.552 1082.216,1079.04 C1082.216,1077.384 1083.476,1076.124 1084.34,1075.476 L1084.34,1075.332 C1083.116,1074.324 1081.892,1072.416 1081.892,1070.112 C1081.892,1066.116 1084.988,1063.308 1088.768,1063.308 C1089.812,1063.308 1090.712,1063.56 1091.324,1063.812 L1097.876,1063.812 L1097.876,1065.54 L1093.556,1065.54 C1094.708,1066.548 1095.536,1068.204 1095.536,1070.148 C1095.536,1074.108 1092.548,1076.916 1088.768,1076.916 C1087.724,1076.916 1086.536,1076.628 1085.672,1076.124 C1084.844,1076.772 1084.16,1077.564 1084.16,1078.788 C1084.16,1080.156 1084.988,1081.2 1087.76,1081.2 L1091.792,1081.2 C1096.148,1081.2 1098.2,1082.568 1098.2,1085.628 C1098.2,1088.976 1094.6,1092.144 1088.984,1092.144 Z M1088.768,1075.332 C1091.288,1075.332 1093.52,1073.244 1093.52,1070.112 C1093.52,1066.944 1091.36,1065 1088.768,1065 C1086.14,1065 1083.98,1066.944 1083.98,1070.112 C1083.98,1073.244 1086.212,1075.332 1088.768,1075.332 Z M1089.236,1090.56 C1093.412,1090.56 1096.112,1088.22 1096.112,1085.916 C1096.112,1083.864 1094.6,1083.108 1091.756,1083.108 L1087.832,1083.108 C1087.4,1083.108 1086.392,1083 1085.42,1082.784 C1083.764,1083.936 1083.044,1085.34 1083.044,1086.636 C1083.044,1088.976 1085.312,1090.56 1089.236,1090.56 Z M1102.232,1083 L1102.232,1063.812 L1103.96,1063.812 L1104.212,1066.728 L1104.284,1066.728 C1106.228,1064.82 1108.208,1063.308 1110.836,1063.308 C1114.832,1063.308 1116.668,1065.792 1116.668,1070.724 L1116.668,1083 L1114.58,1083 L1114.58,1071.012 C1114.58,1067.016 1113.32,1065.18 1110.368,1065.18 C1108.136,1065.18 1106.552,1066.332 1104.32,1068.636 L1104.32,1083 L1102.232,1083 Z M1121.6,1073.928 L1121.6,1072.164 L1130.456,1072.164 L1130.456,1073.928 L1121.6,1073.928 Z M1137.98,1072.452 L1147.052,1072.452 L1145.468,1067.7 C1144.388,1064.64 1143.524,1061.868 1142.588,1058.7 L1142.444,1058.7 C1141.544,1061.868 1140.644,1064.64 1139.6,1067.7 L1137.98,1072.452 Z M1150.544,1083 L1147.628,1074.18 L1137.404,1074.18 L1134.416,1083 L1132.256,1083 L1141.436,1056.756 L1143.668,1056.756 L1152.848,1083 L1150.544,1083 Z M1156.916,1083 L1156.916,1056.756 L1159.076,1056.756 L1159.076,1083 L1156.916,1083 Z M1164.512,1073.928 L1164.512,1072.164 L1173.368,1072.164 L1173.368,1073.928 L1164.512,1073.928 Z M1178.696,1083 L1178.696,1056.756 L1180.856,1056.756 L1180.856,1081.128 L1192.808,1081.128 L1192.808,1083 L1178.696,1083 Z M1201.52,1083.468 C1198.424,1083.468 1195.94,1081.74 1195.94,1078.176 C1195.94,1073.928 1199.72,1071.912 1208.18,1070.94 C1208.252,1068.096 1207.424,1065.144 1203.788,1065.144 C1201.268,1065.144 1199.072,1066.332 1197.74,1067.34 L1196.804,1065.828 C1198.28,1064.82 1200.944,1063.308 1204.076,1063.308 C1208.648,1063.308 1210.268,1066.584 1210.268,1070.832 L1210.268,1083 L1208.504,1083 L1208.288,1080.552 L1208.216,1080.552 C1206.272,1082.136 1203.968,1083.468 1201.52,1083.468 Z M1201.952,1081.704 C1204.076,1081.704 1205.912,1080.696 1208.18,1078.716 L1208.18,1072.488 C1200.62,1073.352 1198.028,1075.116 1198.028,1078.068 C1198.028,1080.696 1199.828,1081.704 1201.952,1081.704 Z M1224.668,1083.468 C1222.868,1083.468 1220.744,1082.532 1218.98,1081.056 L1218.908,1081.056 L1218.656,1083 L1216.964,1083 L1216.964,1054.38 L1219.052,1054.38 L1219.052,1062.588 L1218.944,1066.26 C1220.852,1064.64 1223.12,1063.308 1225.424,1063.308 C1230.536,1063.308 1233.128,1067.196 1233.128,1073.1 C1233.128,1079.652 1229.168,1083.468 1224.668,1083.468 Z M1224.488,1081.632 C1228.232,1081.632 1230.896,1078.248 1230.896,1073.1 C1230.896,1068.492 1229.312,1065.144 1225.028,1065.144 C1223.192,1065.144 1221.212,1066.224 1219.052,1068.204 L1219.052,1079.292 C1221.032,1081.02 1223.084,1081.632 1224.488,1081.632 Z" id="微信公众号Design-AI-Lab" fill="#000000"></path>
        <g id="bg" transform="translate(831.000000, 1139.000000)" fill="#000000">
            <path d="M7.82746432,110.842127 L7.0062392,111.827241 C6.1593508,110.764355 4.49123728,109.053368 3.18240975,107.809014 L3.97797158,107.005368 C5.3124624,108.223798 6.98057592,109.882938 7.82746432,110.842127 Z M6.10802423,126.241013 L9.52124112,123.830076 C9.59823098,124.167089 9.77787397,124.633722 9.9061904,124.841114 C5.23547254,128.314937 4.64521699,128.755646 4.33725757,129.196354 C4.18327786,128.937114 3.74700202,128.496405 3.51603246,128.314937 C3.9523083,127.977924 4.92751313,127.070582 4.92751313,125.852152 L4.92751313,115.923241 L0.641744548,115.923241 L0.641744548,114.704811 L6.10802423,114.704811 L6.10802423,126.241013 Z M15.9883889,127.874228 L23.6617111,127.874228 L23.6617111,129.092658 L8.39205659,129.092658 L8.39205659,127.874228 L14.730888,127.874228 L14.730888,106.616507 L15.9883889,106.616507 L15.9883889,115.197368 L21.6343116,115.197368 L21.6343116,116.415798 L15.9883889,116.415798 L15.9883889,127.874228 Z M48.606424,110.401419 L31.4376864,110.401419 C30.1801855,112.553115 28.7173782,114.44557 27.254571,115.897317 C27.0236014,115.689925 26.4846724,115.301064 26.176713,115.119596 C28.5377352,112.993824 30.7447777,109.675545 32.1305951,106.305419 L33.3367695,106.668355 C32.9518202,107.523849 32.5412077,108.405267 32.0792685,109.234836 L48.606424,109.234836 L48.606424,110.401419 Z M40.7021323,118.049013 L39.957897,118.904507 C38.9057023,117.893469 36.801313,116.571342 35.004883,115.767697 L35.7491183,115.015899 C37.5455482,115.793621 39.6499376,117.063899 40.7021323,118.049013 Z M34.1579946,121.626532 L34.8765666,120.874735 C36.7756497,121.808 39.0853453,123.311595 40.1888666,124.400405 L39.418968,125.281823 C38.3154468,124.141165 36.082741,122.611646 34.1579946,121.626532 Z M30.3341652,125.437367 L44.2180023,125.437367 C44.371982,124.218937 44.5002984,122.585722 44.6029516,120.485874 L31.129727,120.485874 C30.8474309,122.300557 30.5651347,124.011545 30.3341652,125.437367 Z M44.8339211,114.523342 L31.9509521,114.523342 C31.7713091,116.052861 31.5403396,117.686076 31.30937,119.345216 L44.6286149,119.345216 C44.7056047,117.945317 44.7825946,116.338026 44.8339211,114.523342 Z M49.4276491,120.485874 L45.809126,120.485874 C45.7064728,122.559798 45.5781564,124.193013 45.44984,125.437367 L48.6577506,125.437367 L48.6577506,126.578025 L45.2958603,126.578025 C45.090554,128.003848 44.8339211,128.78157 44.5259617,129.196354 C44.0896859,129.714835 43.6020835,129.896304 42.8835115,129.948152 C42.1906028,129.974076 40.9331018,129.948152 39.6756009,129.844456 C39.6499376,129.533367 39.5216212,129.092658 39.3419782,128.78157 C40.7277956,128.885266 42.0109598,128.91119 42.4985622,128.91119 C42.9605013,128.91119 43.2171342,128.859342 43.4481038,128.574177 C43.65341,128.289013 43.8843796,127.69276 44.0640226,126.578025 L28.8970212,126.578025 C29.2049806,124.970734 29.5899299,122.793114 29.9492159,120.485874 L26.2537029,120.485874 L26.2537029,119.345216 L30.1031956,119.345216 C30.411155,117.271292 30.6934512,115.119596 30.8987574,113.382684 L46.0657588,113.382684 C46.0657588,113.382684 46.0400955,113.901165 46.0400955,114.082634 C45.9631057,116.104709 45.9117791,117.815697 45.8347893,119.345216 L49.4276491,119.345216 L49.4276491,120.485874 Z M62.8495471,129.948152 L62.8495471,113.641925 L64.0813848,113.641925 L64.0813848,129.948152 L62.8495471,129.948152 Z M63.7477621,106.460963 L64.8256201,106.979444 C64.6459771,107.316457 64.4150075,107.679393 64.1583747,108.04233 C67.0326626,111.982786 70.7025123,114.756659 75.270577,117.141671 C74.9369543,117.374988 74.5776683,117.841621 74.3723621,118.204557 C69.9582771,115.741773 66.442407,112.993824 63.465466,109.00152 C60.7451578,112.734583 56.7673486,116.104709 52.6868863,118.178633 C52.4559168,117.841621 52.1222941,117.374988 51.7630081,117.115747 C56.5877056,114.834431 61.1814336,110.764355 63.7477621,106.460963 Z M88.5641586,106.590583 L89.8729861,106.590583 C89.8473229,107.420153 89.8473229,108.664507 89.7190064,110.142178 C90.0782924,112.734583 91.5924262,124.581874 100.831209,128.729722 C100.497586,128.988962 100.1383,129.403747 99.9329938,129.74076 C92.8755905,126.474329 90.2835987,118.852659 89.2057407,114.004861 C88.2048726,119.526684 85.5615543,126.266937 78.6068041,129.818532 C78.3758345,129.507443 77.9652219,129.144506 77.6572625,128.91119 C88.4615055,123.570836 88.512832,110.297722 88.5641586,106.590583 Z M118.205253,128.159392 L123.440563,128.159392 C124.852043,128.159392 125.05735,127.511291 125.185666,123.856 C125.519289,124.089317 126.032555,124.296709 126.391841,124.374481 C126.186534,128.340861 125.775922,129.377823 123.517553,129.377823 L118.153926,129.377823 C115.84423,129.377823 115.202648,128.885266 115.202648,127.018734 L115.202648,117.297216 L114.253107,117.297216 C113.226575,122.430178 110.634584,127.355747 104.013456,130 C103.833813,129.688911 103.448864,129.222279 103.166568,128.988962 C109.479736,126.60395 111.969074,122.041317 113.046932,117.297216 L103.448864,117.297216 L103.448864,116.078785 L113.252239,116.078785 C113.662851,113.823393 113.765504,111.542077 113.816831,109.494077 L105.065651,109.494077 L105.065651,108.275646 L124.698064,108.275646 L124.698064,109.494077 L115.023005,109.494077 C114.946015,111.568001 114.843362,113.823393 114.458413,116.078785 L126.186534,116.078785 L126.186534,117.297216 L116.434486,117.297216 L116.434486,127.044658 C116.434486,127.926076 116.742445,128.159392 118.205253,128.159392 Z M136.631491,107.497925 L137.427053,108.016406 C136.631491,110.09033 135.60496,112.604963 134.681082,114.678887 C136.708481,116.908355 137.221747,118.852659 137.221747,120.511798 C137.221747,121.730228 136.965114,122.819038 136.297869,123.285671 C135.989909,123.518988 135.52797,123.674532 135.040368,123.72638 C134.501439,123.778228 133.834193,123.778228 133.295264,123.752304 C133.269601,123.415291 133.141284,122.948659 132.910315,122.611646 C133.57756,122.63757 134.167816,122.663494 134.629755,122.63757 C134.963378,122.611646 135.271337,122.533874 135.476643,122.378329 C135.938583,122.067241 136.092562,121.237671 136.092562,120.434026 C136.092562,118.904507 135.52797,117.063899 133.474907,114.834431 C134.373122,112.786431 135.271337,110.505115 135.887256,108.716355 L131.370518,108.716355 L131.370518,129.948152 L130.241333,129.948152 L130.241333,107.549773 L136.426185,107.549773 L136.631491,107.497925 Z M140.224351,113.693773 L140.224351,117.58238 L148.898541,117.58238 L148.898541,113.693773 L140.224351,113.693773 Z M148.898541,108.820052 L140.224351,108.820052 L140.224351,112.579039 L148.898541,112.579039 L148.898541,108.820052 Z M150.771961,119.915545 L151.644513,120.745114 C150.258695,121.963545 148.282623,123.181975 146.717162,124.115241 C148.10298,126.163241 149.89941,127.770532 152.183442,128.626025 C151.926809,128.91119 151.516196,129.377823 151.336553,129.714835 C147.179101,127.874228 144.561446,123.907848 143.252619,118.723038 L140.224351,118.723038 L140.224351,128.029772 L145.305682,126.707646 C145.305682,127.044658 145.331345,127.589063 145.382671,127.848304 C139.942055,129.403747 139.249146,129.611139 138.81287,129.922228 C138.710217,129.637063 138.453584,129.118582 138.222615,128.807494 C138.556238,128.651949 139.018177,128.237165 139.018177,127.226127 L139.018177,107.679393 L150.079053,107.679393 L150.079053,118.723038 L144.381803,118.723038 C144.792416,120.356254 145.408335,121.859848 146.15257,123.181975 C147.692367,122.274633 149.59145,120.926583 150.771961,119.915545 Z M166.657535,115.14552 L158.855896,115.14552 L158.855896,122.145013 L166.657535,122.145013 L166.657535,115.14552 Z M167.889372,123.363443 L158.855896,123.363443 L158.855896,125.463291 L157.649722,125.463291 L157.649722,113.927089 L167.889372,113.927089 L167.889372,123.363443 Z M177.461777,108.379343 L177.461777,109.597773 L174.228204,109.597773 L174.228204,127.848304 C174.228204,128.963038 173.920244,129.455595 173.099019,129.688911 C172.226467,129.922228 170.481364,129.922228 167.992025,129.922228 C167.889372,129.533367 167.658403,128.937114 167.453096,128.548253 C169.660139,128.626025 171.661875,128.600101 172.277794,128.574177 C172.79106,128.522329 172.970703,128.366785 172.970703,127.82238 L172.970703,109.597773 L154.852423,109.597773 L154.852423,108.379343 L177.461777,108.379343 Z M200.76404,117.634228 L195.862353,117.634228 C193.757963,117.634228 193.142045,117.219444 193.142045,115.53438 L193.142045,106.460963 L194.348219,106.460963 L194.348219,111.17914 C196.786231,110.401419 199.480876,109.416305 201.097663,108.586735 L201.970215,109.520001 C199.917152,110.453267 196.965874,111.464305 194.348219,112.216102 L194.348219,115.508456 C194.348219,116.286178 194.604852,116.467646 195.888016,116.467646 L200.68705,116.467646 C201.764908,116.467646 201.970215,116.001013 202.072868,113.304912 C202.380827,113.512304 202.842766,113.693773 203.227716,113.797469 C203.048073,116.830583 202.663123,117.634228 200.76404,117.634228 Z M182.902394,123.389367 L189.292552,123.389367 L189.292552,120.511798 L182.902394,120.511798 L182.902394,123.389367 Z M189.292552,116.700963 L182.902394,116.700963 L182.902394,119.448912 L189.292552,119.448912 L189.292552,116.700963 Z M190.498726,115.586228 L190.498726,128.237165 C190.498726,129.066734 190.319083,129.429671 189.754491,129.662987 C189.138572,129.87038 188.035051,129.896304 186.392601,129.896304 C186.341274,129.533367 186.135968,129.04081 185.956325,128.677873 C187.367805,128.729722 188.49699,128.703798 188.856276,128.677873 C189.215562,128.677873 189.292552,128.600101 189.292552,128.263089 L189.292552,124.452253 L182.902394,124.452253 L182.902394,129.922228 L181.721883,129.922228 L181.721883,115.586228 L190.498726,115.586228 Z M187.085509,108.431191 L188.060714,107.990482 C189.472195,109.727393 190.986329,112.060558 191.550921,113.590077 L190.550053,114.082634 C190.37041,113.667849 190.13944,113.201216 189.882807,112.682735 C182.337802,113.201216 181.567903,113.304912 181.080301,113.48638 C181.028974,113.201216 180.823668,112.553115 180.669688,112.242026 C181.028974,112.190178 181.38826,111.801317 181.798873,111.205064 C182.286475,110.686583 183.774946,108.508963 184.698824,106.409115 L185.930662,106.875748 C184.90413,108.768203 183.697956,110.660659 182.517445,112.086482 L189.318215,111.697621 C188.65097,110.582887 187.855408,109.416305 187.085509,108.431191 Z M195.939343,128.574177 L200.84103,128.574177 C201.995878,128.574177 202.175521,128.029772 202.303837,124.970734 C202.611797,125.204051 203.073736,125.385519 203.433022,125.437367 C203.253379,128.859342 202.86843,129.688911 200.892357,129.688911 L195.913679,129.688911 C193.757963,129.688911 193.142045,129.274127 193.142045,127.563139 L193.142045,118.489722 L194.373882,118.489722 L194.373882,122.922734 C196.965874,122.145013 199.865825,121.108051 201.482612,120.071089 L202.303837,121.030279 C200.327764,122.222785 197.119854,123.233823 194.373882,123.985621 L194.373882,127.589063 C194.373882,128.366785 194.630515,128.574177 195.939343,128.574177 Z" id="让每个人无限可能"></path>
            <path d="M31.3194753,89.9132623 L38.947283,89.9132623 C41.2204707,89.9132623 41.5740777,88.8049941 41.8771694,82.1553847 C42.9379903,83.0117738 45.0596322,83.8177871 46.3730296,84.120042 C45.7668462,92.331302 44.4029335,94.4974626 39.30089,94.4974626 L30.7132919,94.4974626 C25.0555802,94.4974626 23.590637,92.9861878 23.590637,87.7974775 L23.590637,71.82834 L23.1359995,71.82834 C21.0648729,81.500499 15.9628293,90.5177722 3.18246281,95.7064825 C2.52576414,94.4974626 1.21236679,92.7846845 0,91.7771679 C11.4669692,87.4448467 16.265921,79.9892241 18.3370476,71.82834 L0.757729241,71.82834 L0.757729241,67.2441396 L19.1958074,67.2441396 C19.7009603,63.8689591 19.8525061,60.5441545 19.9535367,57.2697257 L3.78864621,57.2697257 L3.78864621,52.7359011 L43.0895362,52.7359011 L43.0895362,57.2697257 L24.7524885,57.2697257 C24.6009427,60.5441545 24.4493968,63.8689591 23.9947593,67.2441396 L45.918392,67.2441396 L45.918392,71.82834 L28.4906195,71.82834 L28.4906195,87.7471017 C28.4906195,89.6110073 28.945257,89.9132623 31.3194753,89.9132623 Z M62.5505489,63.1636976 L62.5505489,67.8486496 L72.8556665,67.8486496 L72.8556665,63.1636976 L62.5505489,63.1636976 Z M62.5505489,54.9524376 L62.5505489,59.5366379 L72.8556665,59.5366379 L72.8556665,54.9524376 L62.5505489,54.9524376 Z M88.0102514,59.5366379 L88.0102514,54.9524376 L77.6041031,54.9524376 L77.6041031,59.5366379 L88.0102514,59.5366379 Z M88.0102514,67.8486496 L88.0102514,63.1636976 L77.6041031,63.1636976 L77.6041031,67.8486496 L88.0102514,67.8486496 Z M92.8597185,71.6772125 L83.665937,71.6772125 C87.3535527,75.2035205 92.9102338,78.0749427 98.6184607,79.5358417 C97.5576398,80.4929824 96.1432119,82.3065122 95.4359979,83.5155321 C92.1019893,82.4576397 88.8690112,80.8456132 85.9391248,78.9313317 L85.9391248,95.6057308 L81.0896576,95.6057308 L81.0896576,78.1253185 L84.8277885,78.1253185 C82.3020244,76.2614129 79.9783214,74.0448764 78.2102865,71.6772125 L72.8051513,71.6772125 C70.9866011,73.9945006 68.6628981,76.211037 66.0866186,78.0749427 L70.2793871,78.0749427 L70.2793871,81.2989957 C70.2793871,86.0846993 69.0670203,92.2305504 59.1155096,96.0591133 C58.5598415,94.8500934 56.9938678,93.1373153 55.9330468,92.2305504 C64.5206449,89.2583765 65.4804353,84.6741762 65.4804353,81.1478682 L65.4804353,78.5283251 C62.3484877,80.6944857 58.9134485,82.4576397 55.427894,83.7170354 C54.72068,82.5080155 53.3567674,80.7952374 52.2959465,79.8380967 C57.7010817,78.276446 63.3082781,75.2538963 67.046409,71.6772125 L57.9031428,71.6772125 L57.9031428,51.1238746 L92.8597185,51.1238746 L92.8597185,71.6772125 Z M123.939246,76.7147953 L121.00936,80.5937341 C120.049569,79.1832109 118.129989,76.9162986 116.412469,74.9516413 L116.412469,95.6561067 L111.866094,95.6561067 L111.866094,76.1102854 C109.794967,78.1253185 107.572295,79.8884725 105.450653,81.2486198 C105.097046,79.9892241 104.08674,77.5208086 103.480557,76.6140437 C108.784661,73.5411181 114.139281,68.0501529 117.372259,62.2065568 L104.894985,62.2065568 L104.894985,57.9749873 L114.442373,57.9749873 C113.533098,56.1110816 111.613517,53.2900352 109.895998,51.3757538 L113.533098,49.3103448 C115.402163,51.2750021 117.422775,53.944921 118.281535,55.7584508 L114.644434,57.9749873 L119.847508,57.9749873 L120.655753,57.7734839 L123.181517,59.5366379 C121.716574,63.2644492 119.594932,66.841133 117.170198,70.1155618 C119.19081,71.9290916 122.928941,75.6569029 123.939246,76.7147953 Z M139.194862,89.3087523 L150.510285,89.3087523 L150.510285,93.8929527 L121.666058,93.8929527 L121.666058,89.3087523 L134.39591,89.3087523 L134.39591,69.3095486 L123.939246,69.3095486 L123.939246,64.8260999 L134.39591,64.8260999 L134.39591,49.5118481 L139.194862,49.5118481 L139.194862,64.8260999 L149.398949,64.8260999 L149.398949,69.3095486 L139.194862,69.3095486 L139.194862,89.3087523 Z M163.606372,89.7621348 L202.149533,89.7621348 L202.149533,94.2455835 L159.009481,94.2455835 L159.009481,51.9298879 L200.886651,51.9298879 L200.886651,56.4133366 L163.606372,56.4133366 L163.606372,89.7621348 Z M196.744397,83.3644046 L193.006267,86.7899609 C190.581533,83.8177871 186.843402,80.0396 182.600118,76.0599095 C178.40735,80.2914791 173.91149,83.9185387 169.365114,86.7899609 C168.55687,85.883196 166.73832,84.0696662 165.677499,83.263653 C170.425935,80.5937341 175.073341,77.0674261 179.26611,73.0373599 C175.275402,69.4606761 171.183664,65.9343681 167.445533,62.9621942 L170.779542,60.1915237 C174.366127,62.9621942 178.457865,66.3373747 182.398057,69.762931 C185.631035,66.2366231 188.459891,62.458436 190.733079,58.4787455 L195.127908,60.2418995 C192.501114,64.6749724 189.318651,68.8561661 185.833096,72.7351049 C190.177411,76.5636678 194.117603,80.3418549 196.744397,83.3644046 Z" id="无界社区"></path>
            <path d="M0.641744548,37.1428571 L0.641744548,0 L7.357419,0 L14.174081,18.7732919 C15.0324755,21.246118 15.7898824,23.7694099 16.6482769,26.2927019 L16.9007458,26.2927019 C17.7591403,23.7694099 18.4660534,21.246118 19.3244479,18.7732919 L26.0401223,0 L32.8062906,0 L32.8062906,37.1428571 L27.352961,37.1428571 L27.352961,18.7732919 C27.352961,15.4425466 27.8074051,10.6482919 28.1103678,7.26708075 L27.9083927,7.26708075 L24.9292589,15.8462733 L18.4660534,33.5597826 L14.8305003,33.5597826 L8.31680106,15.8462733 L5.38816107,7.26708075 L5.1861859,7.26708075 C5.43865487,10.6482919 5.893099,15.4425466 5.893099,18.7732919 L5.893099,37.1428571 L0.641744548,37.1428571 Z M48.8633167,37.1428571 L48.8633167,0 L54.7205967,0 L54.7205967,37.1428571 L48.8633167,37.1428571 Z M66.6876256,37.1428571 L77.3418159,17.9658385 L67.3440449,0 L73.8577442,0 L78.3516917,8.68012422 C79.26058,10.3959627 80.0684807,12.0613354 81.1793441,14.2818323 L81.4318131,14.2818323 C82.3911951,12.0613354 83.0981082,10.3959627 83.9565027,8.68012422 L88.3494627,0 L94.5097054,0 L84.5119344,18.2686335 L95.2166185,37.1428571 L88.7029192,37.1428571 L83.8050213,27.9076087 C82.8456393,26.0403727 81.8862572,24.1226708 80.7249,21.8517081 L80.5229248,21.8517081 C79.4625552,24.1226708 78.5536669,26.0403727 77.6447786,27.9076087 L72.8983621,37.1428571 L66.6876256,37.1428571 Z M107.183647,37.1428571 L107.183647,0 L113.040927,0 L113.040927,32.197205 L128.744497,32.197205 L128.744497,37.1428571 L107.183647,37.1428571 Z M147.225225,21.9526398 L157.374478,21.9526398 L155.910158,16.9565217 C154.647813,12.9192547 153.536949,8.7810559 152.375592,4.5923913 L152.173617,4.5923913 C151.113247,8.83152174 149.95189,12.9192547 148.740039,16.9565217 L147.225225,21.9526398 Z M161.918919,37.1428571 L158.788304,26.5450311 L145.861893,26.5450311 L142.680784,37.1428571 L136.722516,37.1428571 L149.043002,0 L155.80917,0 L168.129655,37.1428571 L161.918919,37.1428571 Z M179.339277,37.1428571 L179.339277,0 L190.851862,0 C198.476425,0 203.980248,2.42236025 203.980248,9.13431677 C203.980248,12.6669255 202.01099,16.0481366 198.6784,17.1583851 L198.6784,17.4107143 C202.919879,18.3190994 206,21.1956522 206,26.242236 C206,33.6102484 199.991239,37.1428571 191.76075,37.1428571 L179.339277,37.1428571 Z M185.196557,15.4930124 L190.195443,15.4930124 C195.850748,15.4930124 198.223956,13.3734472 198.223956,9.89130435 C198.223956,6.00543478 195.598279,4.54192547 190.346924,4.54192547 L185.196557,4.54192547 L185.196557,15.4930124 Z M185.196557,32.5504658 L191.104331,32.5504658 C196.911117,32.5504658 200.243708,30.4813665 200.243708,25.939441 C200.243708,21.7507764 197.012105,19.9340062 191.104331,19.9340062 L185.196557,19.9340062 L185.196557,32.5504658 Z" id="MIXLAB"></path>
        </g>
        <path d="M100,464.371918 L1208,464.371918 C1223.46397,464.371918 1236,476.907945 1236,492.371918 L1236,1006.43915 C1236,1021.90312 1223.46397,1034.43915 1208,1034.43915 L100,1034.43915 C84.536027,1034.43915 72,1021.90312 72,1006.43915 L72,622.875427 L32.4851116,593 L72,557.300517 L72,492.371918 C72,476.907945 84.536027,464.371918 100,464.371918 Z" id="detail" fill="#FFFFFF"></path>
        <rect id="name" x="403" y="104" width="699" height="81"></rect>
        <rect id="title" x="403" y="199" width="699" height="81"></rect>
        <rect id="avatar" x="68" y="52" width="280" height="280"></rect>
    </g>
</svg>