<?xml version="1.0" encoding="UTF-8"?>
<svg width="1340px" height="1340px" viewBox="0 0 1340 1340" version="1.1" xmlns="http://www.w3.org/2000/svg" xmlns:xlink="http://www.w3.org/1999/xlink">
    <!-- Generator: Sketch 49.2 (51160) - http://www.bohemiancoding.com/sketch -->
    <title>today_card</title>
    <desc>Created with Sketch.</desc>
    <defs></defs>
    <g id="today_card" stroke="none" stroke-width="1" fill="none" fill-rule="evenodd">
        <g id="logo" transform="translate(1170.000000, 1196.000000)" fill-rule="nonzero">
            <g id="light" fill="#646464">
                <circle id="Oval" cx="59.6613559" cy="1.29084746" r="1.12949153"></circle>
                <circle id="Oval" cx="117.830169" cy="59.5" r="1.12949153"></circle>
                <circle id="Oval" cx="1.45220339" cy="59.5" r="1.12949153"></circle>
                <circle id="Oval" cx="8.75355932" cy="52.1986441" r="1.73457627"></circle>
                <circle id="Oval" cx="16.0145763" cy="44.9376271" r="2.33966102"></circle>
                <circle id="Oval" cx="23.3159322" cy="37.6362712" r="2.98508475"></circle>
                <circle id="Oval" cx="30.5769492" cy="30.3752542" r="3.59016949"></circle>
                <circle id="Oval" cx="66.9223729" cy="8.59220339" r="1.73457627"></circle>
                <circle id="Oval" cx="59.6613559" cy="15.8532203" r="2.21864407"></circle>
                <circle id="Oval" cx="52.400339" cy="23.1142373" r="2.66237288"></circle>
                <circle id="Oval" cx="45.139322" cy="30.3752542" r="3.14644068"></circle>
                <circle id="Oval" cx="30.5769492" cy="44.9376271" r="3.14644068"></circle>
                <circle id="Oval" cx="23.2755932" cy="52.2389831" r="2.66237288"></circle>
                <circle id="Oval" cx="15.9742373" cy="59.540339" r="2.21864407"></circle>
                <circle id="Oval" cx="8.67288136" cy="66.8416949" r="1.73457627"></circle>
                <circle id="Oval" cx="74.2237288" cy="15.8532203" r="2.33966102"></circle>
                <circle id="Oval" cx="66.9223729" cy="23.1142373" r="2.66237288"></circle>
                <circle id="Oval" cx="59.6613559" cy="30.3752542" r="2.98508475"></circle>
                <circle id="Oval" cx="52.400339" cy="37.6766102" r="3.30779661"></circle>
                <circle id="Oval" cx="30.5366102" cy="59.5" r="2.98508475"></circle>
                <circle id="Oval" cx="23.2755932" cy="66.8013559" r="2.66237288"></circle>
                <circle id="Oval" cx="15.9742373" cy="74.1027119" r="2.33966102"></circle>
                <circle id="Oval" cx="81.4847458" cy="23.1545763" r="2.98508475"></circle>
                <circle id="Oval" cx="74.2237288" cy="30.4155932" r="3.14644068"></circle>
                <circle id="Oval" cx="66.9627119" cy="37.6766102" r="3.30779661"></circle>
                <circle id="Oval" cx="59.7016949" cy="44.9376271" r="3.42881356"></circle>
                <circle id="Oval" cx="45.139322" cy="59.5" r="3.42881356"></circle>
                <circle id="Oval" cx="30.5366102" cy="74.1027119" r="3.14644068"></circle>
                <circle id="Oval" cx="23.2352542" cy="81.4040678" r="2.98508475"></circle>
                <circle id="Oval" cx="88.7457627" cy="30.4155932" r="3.59016949"></circle>
                <circle id="Oval" cx="52.400339" cy="66.7610169" r="3.59016949"></circle>
                <circle id="Oval" cx="45.0989831" cy="74.0623729" r="3.59016949"></circle>
                <circle id="Oval" cx="30.5366102" cy="88.6650847" r="3.59016949"></circle>
                <circle id="Oval" cx="96.0471186" cy="37.6766102" r="2.98508475"></circle>
                <circle id="Oval" cx="88.7861017" cy="44.9376271" r="3.14644068"></circle>
                <circle id="Oval" cx="74.2237288" cy="59.5" r="3.42881356"></circle>
                <circle id="Oval" cx="66.9627119" cy="66.7610169" r="3.59016949"></circle>
                <circle id="Oval" cx="59.6613559" cy="74.0623729" r="3.42881356"></circle>
                <circle id="Oval" cx="52.400339" cy="81.3233898" r="3.30779661"></circle>
                <circle id="Oval" cx="45.0989831" cy="88.6247458" r="3.14644068"></circle>
                <circle id="Oval" cx="37.7976271" cy="95.9261017" r="2.98508475"></circle>
                <circle id="Oval" cx="103.308136" cy="44.9376271" r="2.33966102"></circle>
                <circle id="Oval" cx="96.0471186" cy="52.2389831" r="2.66237288"></circle>
                <circle id="Oval" cx="88.7861017" cy="59.5" r="2.98508475"></circle>
                <circle id="Oval" cx="74.2640678" cy="74.0220339" r="3.59016949"></circle>
                <circle id="Oval" cx="66.9627119" cy="81.3233898" r="3.30779661"></circle>
                <circle id="Oval" cx="59.6613559" cy="88.6247458" r="2.98508475"></circle>
                <circle id="Oval" cx="52.36" cy="95.8857627" r="2.66237288"></circle>
                <circle id="Oval" cx="45.0586441" cy="103.187119" r="2.33966102"></circle>
                <circle id="Oval" cx="110.569153" cy="52.2389831" r="1.73457627"></circle>
                <circle id="Oval" cx="103.308136" cy="59.5" r="2.21864407"></circle>
                <circle id="Oval" cx="96.0471186" cy="66.7610169" r="2.66237288"></circle>
                <circle id="Oval" cx="88.7861017" cy="74.0220339" r="3.14644068"></circle>
                <circle id="Oval" cx="74.2237288" cy="88.5844068" r="3.14644068"></circle>
                <circle id="Oval" cx="66.9223729" cy="95.8857627" r="2.66237288"></circle>
                <circle id="Oval" cx="59.6210169" cy="103.187119" r="2.21864407"></circle>
                <circle id="Oval" cx="52.319661" cy="110.448136" r="1.73457627"></circle>
                <circle id="Oval" cx="88.7861017" cy="88.5844068" r="3.59016949"></circle>
                <circle id="Oval" cx="37.8783051" cy="23.1142373" r="2.98508475"></circle>
                <circle id="Oval" cx="45.139322" cy="15.8532203" r="2.33966102"></circle>
                <circle id="Oval" cx="52.400339" cy="8.59220339" r="1.73457627"></circle>
                <circle id="Oval" cx="59.7016949" cy="117.709153" r="1.12949153"></circle>
                <circle id="Oval" cx="66.9627119" cy="110.407797" r="1.73457627"></circle>
                <circle id="Oval" cx="74.2237288" cy="103.14678" r="2.33966102"></circle>
                <circle id="Oval" cx="81.5250847" cy="95.8454237" r="2.98508475"></circle>
                <circle id="Oval" cx="96.0874576" cy="81.3233898" r="2.98508475"></circle>
                <circle id="Oval" cx="103.348475" cy="74.0623729" r="2.33966102"></circle>
                <circle id="Oval" cx="110.609492" cy="66.8013559" r="1.73457627"></circle>
            </g>
            <g id="dark" opacity="0.501075634" transform="translate(33.884746, 33.884746)" fill="#000000">
                <circle id="Oval" cx="3.95322034" cy="3.75152542" r="3.59016949"></circle>
                <circle id="Oval" cx="11.2545763" cy="11.0528814" r="3.59016949"></circle>
                <circle id="Oval" cx="3.95322034" cy="18.3542373" r="3.30779661"></circle>
                <circle id="Oval" cx="18.5155932" cy="18.3138983" r="3.59016949"></circle>
                <circle id="Oval" cx="3.91288136" cy="32.9166102" r="3.30779661"></circle>
                <circle id="Oval" cx="47.6" cy="3.79186441" r="3.59016949"></circle>
                <circle id="Oval" cx="40.3389831" cy="11.0528814" r="3.59016949"></circle>
                <circle id="Oval" cx="33.0779661" cy="18.3138983" r="3.59016949"></circle>
                <circle id="Oval" cx="25.7766102" cy="25.5749153" r="3.59016949"></circle>
                <circle id="Oval" cx="3.91288136" cy="47.4789831" r="3.59016949"></circle>
                <circle id="Oval" cx="47.6" cy="18.3542373" r="3.30779661"></circle>
                <circle id="Oval" cx="47.6" cy="32.8762712" r="3.30779661"></circle>
                <circle id="Oval" cx="47.640339" cy="47.4386441" r="3.59016949"></circle>
            </g>
        </g>
        <path d="M934.168,1136.952 L934.168,1145.232 L923.26,1145.232 L923.26,1136.952 L924.664,1136.952 L924.664,1143.72 L928.156,1143.72 L928.156,1134.072 L929.596,1134.072 L929.596,1143.72 L932.764,1143.72 L932.764,1136.952 L934.168,1136.952 Z M934.312,1148.364 L934.312,1149.912 L922.36,1149.912 L922.36,1148.364 L934.312,1148.364 Z M919.696,1134.072 L921.316,1134.684 C919.66,1137.456 916.996,1140.588 914.548,1142.712 C914.332,1142.352 913.792,1141.704 913.504,1141.38 C915.808,1139.472 918.364,1136.556 919.696,1134.072 Z M920.56,1141.056 L922.144,1141.596 C921.388,1143.144 920.452,1144.692 919.516,1146.204 L919.516,1166.616 L917.896,1166.616 L917.896,1148.58 C916.708,1150.236 915.376,1151.748 914.152,1153.008 C913.936,1152.684 913.36,1151.928 913,1151.568 C915.808,1148.94 918.688,1144.944 920.56,1141.056 Z M932.98,1159.632 L935.932,1157.616 C936.076,1158.048 936.364,1158.66 936.508,1158.912 C932.476,1161.828 931.792,1162.368 931.288,1163.016 C931.18,1162.584 930.784,1161.828 930.532,1161.432 C930.928,1161.216 931.504,1160.712 931.504,1159.308 L931.504,1154.268 L925.708,1154.268 L925.708,1157.004 C925.708,1159.92 925.132,1163.844 922.432,1166.688 C922.216,1166.328 921.604,1165.716 921.28,1165.5 C923.692,1162.908 924.124,1159.56 924.124,1156.968 L924.124,1152.756 L932.98,1152.756 L932.98,1159.632 Z M943.708,1143.252 L938.344,1143.252 C938.236,1143.828 938.092,1144.368 937.948,1144.944 C938.488,1149.012 939.316,1152.936 940.54,1156.32 C942.16,1152.684 943.096,1148.328 943.708,1143.252 Z M946.552,1143.252 L945.292,1143.252 C944.536,1149.3 943.348,1154.232 941.296,1158.264 C942.664,1161.396 944.428,1163.844 946.696,1165.248 C946.3,1165.572 945.796,1166.148 945.508,1166.58 C943.384,1165.104 941.692,1162.8 940.396,1159.956 C938.74,1162.62 936.652,1164.888 933.88,1166.76 C933.736,1166.436 933.16,1165.752 932.8,1165.464 C935.752,1163.592 937.984,1161.144 939.64,1158.12 C938.488,1155.168 937.66,1151.712 937.084,1148.004 C936.652,1149.192 936.184,1150.308 935.644,1151.316 C935.392,1150.992 934.744,1150.416 934.312,1150.128 C936.436,1146.204 937.444,1140.264 938.092,1134.108 L939.748,1134.324 C939.46,1136.88 939.136,1139.328 938.668,1141.668 L946.552,1141.668 L946.552,1143.252 Z M971.968,1138.752 L970.312,1139.472 C969.844,1138.212 968.764,1136.232 967.756,1134.756 L969.304,1134.108 C970.348,1135.62 971.428,1137.528 971.968,1138.752 Z M957.928,1134.216 L959.512,1134.648 C958.612,1137.276 957.496,1139.868 956.236,1142.28 L956.236,1166.796 L954.616,1166.796 L954.616,1145.16 C953.392,1147.176 952.06,1149.012 950.728,1150.56 C950.548,1150.2 950.008,1149.372 949.648,1149.048 C952.996,1145.412 956.056,1139.832 957.928,1134.216 Z M977.764,1156.932 L963.148,1156.932 L963.148,1163.628 L977.764,1163.628 L977.764,1156.932 Z M961.564,1166.76 L961.564,1155.42 L979.384,1155.42 L979.384,1166.652 L977.764,1166.652 L977.764,1165.14 L963.148,1165.14 L963.148,1166.76 L961.564,1166.76 Z M962.032,1151.748 L962.032,1150.236 L979.06,1150.236 L979.06,1151.748 L962.032,1151.748 Z M979.06,1145.232 L979.06,1146.744 L962.032,1146.744 L962.032,1145.232 L979.06,1145.232 Z M959.368,1140.228 L982.012,1140.228 L982.012,1141.776 L959.368,1141.776 L959.368,1140.228 Z M996.484,1135.296 L998.284,1135.8 C995.836,1141.632 992.056,1146.996 987.988,1150.524 C987.628,1150.2 986.872,1149.624 986.404,1149.336 C990.58,1146.024 994.288,1140.804 996.484,1135.296 Z M1006.6,1154.088 L1008.148,1153.332 C1011.424,1157.112 1015.24,1162.152 1017.04,1165.392 L1015.42,1166.292 C1014.772,1165.176 1013.908,1163.772 1012.9,1162.332 C993.1,1163.52 991.408,1163.628 990.328,1163.988 C990.22,1163.592 989.896,1162.656 989.644,1162.152 C990.436,1161.972 991.516,1160.748 992.776,1159.056 C994.216,1157.436 998.608,1151.136 1001.596,1145.196 L1003.396,1145.988 C1000.228,1151.676 996.628,1157.436 992.92,1161.756 L1011.784,1160.712 C1010.128,1158.444 1008.292,1156.068 1006.6,1154.088 Z M1005.952,1135.692 L1007.608,1135.008 C1010.164,1140.228 1014.916,1146.204 1018.732,1149.12 C1018.264,1149.48 1017.652,1150.128 1017.292,1150.56 C1013.476,1147.32 1008.724,1141.128 1005.952,1135.692 Z M1038.748,1159.488 L1037.488,1160.748 C1036.12,1159.092 1033.564,1156.572 1031.116,1154.556 C1029.64,1159.632 1027.3,1163.556 1023.772,1166.436 C1023.448,1166.148 1022.692,1165.644 1022.26,1165.356 C1027.444,1161.504 1029.856,1155.24 1030.864,1146.816 L1032.628,1146.996 C1032.34,1149.12 1032.016,1151.1 1031.548,1152.9 C1034.212,1155.024 1037.308,1157.724 1038.748,1159.488 Z M1043.824,1147.068 L1045.552,1147.248 C1045.372,1148.868 1045.156,1150.416 1044.904,1151.892 C1046.236,1156.5 1049.152,1162.26 1054.336,1165.032 C1053.94,1165.356 1053.436,1166.004 1053.148,1166.472 C1048.648,1163.844 1045.84,1158.984 1044.292,1154.808 C1042.924,1159.992 1040.728,1163.88 1037.128,1166.76 C1036.84,1166.472 1036.084,1165.896 1035.652,1165.608 C1040.908,1161.864 1042.996,1155.672 1043.824,1147.068 Z M1038.352,1134 L1040.008,1134.684 C1039.72,1135.26 1039.396,1135.836 1039.072,1136.448 C1042.204,1141.02 1048.432,1145.34 1054.624,1146.996 C1054.192,1147.392 1053.652,1148.112 1053.364,1148.616 C1047.46,1146.78 1041.628,1142.532 1038.208,1137.708 C1034.824,1142.64 1029.568,1146.528 1023.376,1148.724 C1023.052,1148.292 1022.62,1147.572 1022.152,1147.176 C1029.424,1144.836 1035.472,1140.084 1038.352,1134 Z M1083.496,1143.036 L1083.496,1137.276 L1064.92,1137.276 L1064.92,1143.036 L1083.496,1143.036 Z M1085.26,1135.692 L1085.26,1144.656 L1063.228,1144.656 L1063.228,1135.692 L1085.26,1135.692 Z M1089.616,1150.092 L1068.448,1150.092 C1067.944,1151.64 1067.368,1153.404 1066.792,1154.844 L1085.224,1154.844 C1085.224,1154.844 1085.188,1155.492 1085.116,1155.744 C1084.144,1162.08 1083.244,1164.78 1081.912,1165.86 C1081.192,1166.472 1080.508,1166.616 1079.284,1166.652 C1078.168,1166.688 1075.756,1166.652 1073.272,1166.472 C1073.236,1165.932 1073.02,1165.284 1072.66,1164.78 C1075.288,1165.068 1077.88,1165.104 1078.852,1165.104 C1079.716,1165.104 1080.148,1165.068 1080.544,1164.78 C1081.552,1163.988 1082.38,1161.648 1083.208,1156.5 L1065.244,1156.5 L1065.244,1156.464 L1064.164,1156.464 C1064.956,1154.772 1065.856,1152.252 1066.54,1150.092 L1058.764,1150.092 L1058.764,1148.472 L1089.616,1148.472 L1089.616,1150.092 Z M1096.06,1164.06 L1096.06,1137.816 L1102.252,1137.816 C1110.316,1137.816 1114.276,1142.82 1114.276,1150.848 C1114.276,1158.876 1110.316,1164.06 1102.288,1164.06 L1096.06,1164.06 Z M1098.22,1162.224 L1102.036,1162.224 C1108.948,1162.224 1112.008,1157.652 1112.008,1150.848 C1112.008,1144.044 1108.948,1139.616 1102.036,1139.616 L1098.22,1139.616 L1098.22,1162.224 Z M1127.38,1164.528 C1122.448,1164.528 1118.452,1160.784 1118.452,1154.484 C1118.452,1148.256 1122.52,1144.368 1126.876,1144.368 C1131.52,1144.368 1134.292,1147.68 1134.292,1153.296 C1134.292,1153.836 1134.256,1154.34 1134.184,1154.808 L1120.576,1154.808 C1120.684,1159.488 1123.456,1162.764 1127.596,1162.764 C1129.648,1162.764 1131.268,1162.116 1132.708,1161.108 L1133.5,1162.656 C1131.952,1163.628 1130.152,1164.528 1127.38,1164.528 Z M1120.576,1153.152 L1132.384,1153.152 C1132.384,1148.508 1130.26,1146.168 1126.912,1146.168 C1123.78,1146.168 1120.972,1148.76 1120.576,1153.152 Z M1144.12,1164.528 C1141.312,1164.528 1138.792,1163.34 1137.064,1161.9 L1138.18,1160.388 C1139.836,1161.792 1141.6,1162.8 1144.228,1162.8 C1147.144,1162.8 1148.62,1161.144 1148.62,1159.164 C1148.62,1156.896 1146.208,1155.852 1143.976,1155.06 C1141.132,1154.052 1137.964,1152.864 1137.964,1149.552 C1137.964,1146.744 1140.232,1144.368 1144.264,1144.368 C1146.352,1144.368 1148.404,1145.268 1149.844,1146.42 L1148.764,1147.86 C1147.468,1146.888 1146.064,1146.132 1144.192,1146.132 C1141.348,1146.132 1140.052,1147.716 1140.052,1149.444 C1140.052,1151.568 1142.284,1152.36 1144.516,1153.188 C1147.468,1154.304 1150.708,1155.348 1150.708,1159.056 C1150.708,1162.008 1148.368,1164.528 1144.12,1164.528 Z M1155.676,1164.06 L1155.676,1144.872 L1157.764,1144.872 L1157.764,1164.06 L1155.676,1164.06 Z M1156.756,1140.372 C1155.784,1140.372 1154.992,1139.688 1154.992,1138.716 C1154.992,1137.636 1155.784,1136.988 1156.756,1136.988 C1157.692,1136.988 1158.52,1137.636 1158.52,1138.716 C1158.52,1139.688 1157.692,1140.372 1156.756,1140.372 Z M1171.228,1173.204 C1166.44,1173.204 1163.308,1171.188 1163.308,1167.948 C1163.308,1166.256 1164.424,1164.564 1166.188,1163.376 L1166.188,1163.196 C1165.216,1162.62 1164.46,1161.612 1164.46,1160.1 C1164.46,1158.444 1165.72,1157.184 1166.584,1156.536 L1166.584,1156.392 C1165.36,1155.384 1164.136,1153.476 1164.136,1151.172 C1164.136,1147.176 1167.232,1144.368 1171.012,1144.368 C1172.056,1144.368 1172.956,1144.62 1173.568,1144.872 L1180.12,1144.872 L1180.12,1146.6 L1175.8,1146.6 C1176.952,1147.608 1177.78,1149.264 1177.78,1151.208 C1177.78,1155.168 1174.792,1157.976 1171.012,1157.976 C1169.968,1157.976 1168.78,1157.688 1167.916,1157.184 C1167.088,1157.832 1166.404,1158.624 1166.404,1159.848 C1166.404,1161.216 1167.232,1162.26 1170.004,1162.26 L1174.036,1162.26 C1178.392,1162.26 1180.444,1163.628 1180.444,1166.688 C1180.444,1170.036 1176.844,1173.204 1171.228,1173.204 Z M1171.012,1156.392 C1173.532,1156.392 1175.764,1154.304 1175.764,1151.172 C1175.764,1148.004 1173.604,1146.06 1171.012,1146.06 C1168.384,1146.06 1166.224,1148.004 1166.224,1151.172 C1166.224,1154.304 1168.456,1156.392 1171.012,1156.392 Z M1171.48,1171.62 C1175.656,1171.62 1178.356,1169.28 1178.356,1166.976 C1178.356,1164.924 1176.844,1164.168 1174,1164.168 L1170.076,1164.168 C1169.644,1164.168 1168.636,1164.06 1167.664,1163.844 C1166.008,1164.996 1165.288,1166.4 1165.288,1167.696 C1165.288,1170.036 1167.556,1171.62 1171.48,1171.62 Z M1184.476,1164.06 L1184.476,1144.872 L1186.204,1144.872 L1186.456,1147.788 L1186.528,1147.788 C1188.472,1145.88 1190.452,1144.368 1193.08,1144.368 C1197.076,1144.368 1198.912,1146.852 1198.912,1151.784 L1198.912,1164.06 L1196.824,1164.06 L1196.824,1152.072 C1196.824,1148.076 1195.564,1146.24 1192.612,1146.24 C1190.38,1146.24 1188.796,1147.392 1186.564,1149.696 L1186.564,1164.06 L1184.476,1164.06 Z M1203.844,1154.988 L1203.844,1153.224 L1212.7,1153.224 L1212.7,1154.988 L1203.844,1154.988 Z M1220.224,1153.512 L1229.296,1153.512 L1227.712,1148.76 C1226.632,1145.7 1225.768,1142.928 1224.832,1139.76 L1224.688,1139.76 C1223.788,1142.928 1222.888,1145.7 1221.844,1148.76 L1220.224,1153.512 Z M1232.788,1164.06 L1229.872,1155.24 L1219.648,1155.24 L1216.66,1164.06 L1214.5,1164.06 L1223.68,1137.816 L1225.912,1137.816 L1235.092,1164.06 L1232.788,1164.06 Z M1239.16,1164.06 L1239.16,1137.816 L1241.32,1137.816 L1241.32,1164.06 L1239.16,1164.06 Z M1246.756,1154.988 L1246.756,1153.224 L1255.612,1153.224 L1255.612,1154.988 L1246.756,1154.988 Z M1260.94,1164.06 L1260.94,1137.816 L1263.1,1137.816 L1263.1,1162.188 L1275.052,1162.188 L1275.052,1164.06 L1260.94,1164.06 Z M1283.764,1164.528 C1280.668,1164.528 1278.184,1162.8 1278.184,1159.236 C1278.184,1154.988 1281.964,1152.972 1290.424,1152 C1290.496,1149.156 1289.668,1146.204 1286.032,1146.204 C1283.512,1146.204 1281.316,1147.392 1279.984,1148.4 L1279.048,1146.888 C1280.524,1145.88 1283.188,1144.368 1286.32,1144.368 C1290.892,1144.368 1292.512,1147.644 1292.512,1151.892 L1292.512,1164.06 L1290.748,1164.06 L1290.532,1161.612 L1290.46,1161.612 C1288.516,1163.196 1286.212,1164.528 1283.764,1164.528 Z M1284.196,1162.764 C1286.32,1162.764 1288.156,1161.756 1290.424,1159.776 L1290.424,1153.548 C1282.864,1154.412 1280.272,1156.176 1280.272,1159.128 C1280.272,1161.756 1282.072,1162.764 1284.196,1162.764 Z M1306.912,1164.528 C1305.112,1164.528 1302.988,1163.592 1301.224,1162.116 L1301.152,1162.116 L1300.9,1164.06 L1299.208,1164.06 L1299.208,1135.44 L1301.296,1135.44 L1301.296,1143.648 L1301.188,1147.32 C1303.096,1145.7 1305.364,1144.368 1307.668,1144.368 C1312.78,1144.368 1315.372,1148.256 1315.372,1154.16 C1315.372,1160.712 1311.412,1164.528 1306.912,1164.528 Z M1306.732,1162.692 C1310.476,1162.692 1313.14,1159.308 1313.14,1154.16 C1313.14,1149.552 1311.556,1146.204 1307.272,1146.204 C1305.436,1146.204 1303.456,1147.284 1301.296,1149.264 L1301.296,1160.352 C1303.276,1162.08 1305.328,1162.692 1306.732,1162.692 Z" id="微信公众号Design-AI-Lab" fill="#000000"></path>
        <g id="bg" transform="translate(946.000000, 1191.000000)" fill="#000000">
            <path d="M7.82746432,110.842127 L7.0062392,111.827241 C6.1593508,110.764355 4.49123728,109.053368 3.18240975,107.809014 L3.97797158,107.005368 C5.3124624,108.223798 6.98057592,109.882938 7.82746432,110.842127 Z M6.10802423,126.241013 L9.52124112,123.830076 C9.59823098,124.167089 9.77787397,124.633722 9.9061904,124.841114 C5.23547254,128.314937 4.64521699,128.755646 4.33725757,129.196354 C4.18327786,128.937114 3.74700202,128.496405 3.51603246,128.314937 C3.9523083,127.977924 4.92751313,127.070582 4.92751313,125.852152 L4.92751313,115.923241 L0.641744548,115.923241 L0.641744548,114.704811 L6.10802423,114.704811 L6.10802423,126.241013 Z M15.9883889,127.874228 L23.6617111,127.874228 L23.6617111,129.092658 L8.39205659,129.092658 L8.39205659,127.874228 L14.730888,127.874228 L14.730888,106.616507 L15.9883889,106.616507 L15.9883889,115.197368 L21.6343116,115.197368 L21.6343116,116.415798 L15.9883889,116.415798 L15.9883889,127.874228 Z M48.606424,110.401419 L31.4376864,110.401419 C30.1801855,112.553115 28.7173782,114.44557 27.254571,115.897317 C27.0236014,115.689925 26.4846724,115.301064 26.176713,115.119596 C28.5377352,112.993824 30.7447777,109.675545 32.1305951,106.305419 L33.3367695,106.668355 C32.9518202,107.523849 32.5412077,108.405267 32.0792685,109.234836 L48.606424,109.234836 L48.606424,110.401419 Z M40.7021323,118.049013 L39.957897,118.904507 C38.9057023,117.893469 36.801313,116.571342 35.004883,115.767697 L35.7491183,115.015899 C37.5455482,115.793621 39.6499376,117.063899 40.7021323,118.049013 Z M34.1579946,121.626532 L34.8765666,120.874735 C36.7756497,121.808 39.0853453,123.311595 40.1888666,124.400405 L39.418968,125.281823 C38.3154468,124.141165 36.082741,122.611646 34.1579946,121.626532 Z M30.3341652,125.437367 L44.2180023,125.437367 C44.371982,124.218937 44.5002984,122.585722 44.6029516,120.485874 L31.129727,120.485874 C30.8474309,122.300557 30.5651347,124.011545 30.3341652,125.437367 Z M44.8339211,114.523342 L31.9509521,114.523342 C31.7713091,116.052861 31.5403396,117.686076 31.30937,119.345216 L44.6286149,119.345216 C44.7056047,117.945317 44.7825946,116.338026 44.8339211,114.523342 Z M49.4276491,120.485874 L45.809126,120.485874 C45.7064728,122.559798 45.5781564,124.193013 45.44984,125.437367 L48.6577506,125.437367 L48.6577506,126.578025 L45.2958603,126.578025 C45.090554,128.003848 44.8339211,128.78157 44.5259617,129.196354 C44.0896859,129.714835 43.6020835,129.896304 42.8835115,129.948152 C42.1906028,129.974076 40.9331018,129.948152 39.6756009,129.844456 C39.6499376,129.533367 39.5216212,129.092658 39.3419782,128.78157 C40.7277956,128.885266 42.0109598,128.91119 42.4985622,128.91119 C42.9605013,128.91119 43.2171342,128.859342 43.4481038,128.574177 C43.65341,128.289013 43.8843796,127.69276 44.0640226,126.578025 L28.8970212,126.578025 C29.2049806,124.970734 29.5899299,122.793114 29.9492159,120.485874 L26.2537029,120.485874 L26.2537029,119.345216 L30.1031956,119.345216 C30.411155,117.271292 30.6934512,115.119596 30.8987574,113.382684 L46.0657588,113.382684 C46.0657588,113.382684 46.0400955,113.901165 46.0400955,114.082634 C45.9631057,116.104709 45.9117791,117.815697 45.8347893,119.345216 L49.4276491,119.345216 L49.4276491,120.485874 Z M62.8495471,129.948152 L62.8495471,113.641925 L64.0813848,113.641925 L64.0813848,129.948152 L62.8495471,129.948152 Z M63.7477621,106.460963 L64.8256201,106.979444 C64.6459771,107.316457 64.4150075,107.679393 64.1583747,108.04233 C67.0326626,111.982786 70.7025123,114.756659 75.270577,117.141671 C74.9369543,117.374988 74.5776683,117.841621 74.3723621,118.204557 C69.9582771,115.741773 66.442407,112.993824 63.465466,109.00152 C60.7451578,112.734583 56.7673486,116.104709 52.6868863,118.178633 C52.4559168,117.841621 52.1222941,117.374988 51.7630081,117.115747 C56.5877056,114.834431 61.1814336,110.764355 63.7477621,106.460963 Z M88.5641586,106.590583 L89.8729861,106.590583 C89.8473229,107.420153 89.8473229,108.664507 89.7190064,110.142178 C90.0782924,112.734583 91.5924262,124.581874 100.831209,128.729722 C100.497586,128.988962 100.1383,129.403747 99.9329938,129.74076 C92.8755905,126.474329 90.2835987,118.852659 89.2057407,114.004861 C88.2048726,119.526684 85.5615543,126.266937 78.6068041,129.818532 C78.3758345,129.507443 77.9652219,129.144506 77.6572625,128.91119 C88.4615055,123.570836 88.512832,110.297722 88.5641586,106.590583 Z M118.205253,128.159392 L123.440563,128.159392 C124.852043,128.159392 125.05735,127.511291 125.185666,123.856 C125.519289,124.089317 126.032555,124.296709 126.391841,124.374481 C126.186534,128.340861 125.775922,129.377823 123.517553,129.377823 L118.153926,129.377823 C115.84423,129.377823 115.202648,128.885266 115.202648,127.018734 L115.202648,117.297216 L114.253107,117.297216 C113.226575,122.430178 110.634584,127.355747 104.013456,130 C103.833813,129.688911 103.448864,129.222279 103.166568,128.988962 C109.479736,126.60395 111.969074,122.041317 113.046932,117.297216 L103.448864,117.297216 L103.448864,116.078785 L113.252239,116.078785 C113.662851,113.823393 113.765504,111.542077 113.816831,109.494077 L105.065651,109.494077 L105.065651,108.275646 L124.698064,108.275646 L124.698064,109.494077 L115.023005,109.494077 C114.946015,111.568001 114.843362,113.823393 114.458413,116.078785 L126.186534,116.078785 L126.186534,117.297216 L116.434486,117.297216 L116.434486,127.044658 C116.434486,127.926076 116.742445,128.159392 118.205253,128.159392 Z M136.631491,107.497925 L137.427053,108.016406 C136.631491,110.09033 135.60496,112.604963 134.681082,114.678887 C136.708481,116.908355 137.221747,118.852659 137.221747,120.511798 C137.221747,121.730228 136.965114,122.819038 136.297869,123.285671 C135.989909,123.518988 135.52797,123.674532 135.040368,123.72638 C134.501439,123.778228 133.834193,123.778228 133.295264,123.752304 C133.269601,123.415291 133.141284,122.948659 132.910315,122.611646 C133.57756,122.63757 134.167816,122.663494 134.629755,122.63757 C134.963378,122.611646 135.271337,122.533874 135.476643,122.378329 C135.938583,122.067241 136.092562,121.237671 136.092562,120.434026 C136.092562,118.904507 135.52797,117.063899 133.474907,114.834431 C134.373122,112.786431 135.271337,110.505115 135.887256,108.716355 L131.370518,108.716355 L131.370518,129.948152 L130.241333,129.948152 L130.241333,107.549773 L136.426185,107.549773 L136.631491,107.497925 Z M140.224351,113.693773 L140.224351,117.58238 L148.898541,117.58238 L148.898541,113.693773 L140.224351,113.693773 Z M148.898541,108.820052 L140.224351,108.820052 L140.224351,112.579039 L148.898541,112.579039 L148.898541,108.820052 Z M150.771961,119.915545 L151.644513,120.745114 C150.258695,121.963545 148.282623,123.181975 146.717162,124.115241 C148.10298,126.163241 149.89941,127.770532 152.183442,128.626025 C151.926809,128.91119 151.516196,129.377823 151.336553,129.714835 C147.179101,127.874228 144.561446,123.907848 143.252619,118.723038 L140.224351,118.723038 L140.224351,128.029772 L145.305682,126.707646 C145.305682,127.044658 145.331345,127.589063 145.382671,127.848304 C139.942055,129.403747 139.249146,129.611139 138.81287,129.922228 C138.710217,129.637063 138.453584,129.118582 138.222615,128.807494 C138.556238,128.651949 139.018177,128.237165 139.018177,127.226127 L139.018177,107.679393 L150.079053,107.679393 L150.079053,118.723038 L144.381803,118.723038 C144.792416,120.356254 145.408335,121.859848 146.15257,123.181975 C147.692367,122.274633 149.59145,120.926583 150.771961,119.915545 Z M166.657535,115.14552 L158.855896,115.14552 L158.855896,122.145013 L166.657535,122.145013 L166.657535,115.14552 Z M167.889372,123.363443 L158.855896,123.363443 L158.855896,125.463291 L157.649722,125.463291 L157.649722,113.927089 L167.889372,113.927089 L167.889372,123.363443 Z M177.461777,108.379343 L177.461777,109.597773 L174.228204,109.597773 L174.228204,127.848304 C174.228204,128.963038 173.920244,129.455595 173.099019,129.688911 C172.226467,129.922228 170.481364,129.922228 167.992025,129.922228 C167.889372,129.533367 167.658403,128.937114 167.453096,128.548253 C169.660139,128.626025 171.661875,128.600101 172.277794,128.574177 C172.79106,128.522329 172.970703,128.366785 172.970703,127.82238 L172.970703,109.597773 L154.852423,109.597773 L154.852423,108.379343 L177.461777,108.379343 Z M200.76404,117.634228 L195.862353,117.634228 C193.757963,117.634228 193.142045,117.219444 193.142045,115.53438 L193.142045,106.460963 L194.348219,106.460963 L194.348219,111.17914 C196.786231,110.401419 199.480876,109.416305 201.097663,108.586735 L201.970215,109.520001 C199.917152,110.453267 196.965874,111.464305 194.348219,112.216102 L194.348219,115.508456 C194.348219,116.286178 194.604852,116.467646 195.888016,116.467646 L200.68705,116.467646 C201.764908,116.467646 201.970215,116.001013 202.072868,113.304912 C202.380827,113.512304 202.842766,113.693773 203.227716,113.797469 C203.048073,116.830583 202.663123,117.634228 200.76404,117.634228 Z M182.902394,123.389367 L189.292552,123.389367 L189.292552,120.511798 L182.902394,120.511798 L182.902394,123.389367 Z M189.292552,116.700963 L182.902394,116.700963 L182.902394,119.448912 L189.292552,119.448912 L189.292552,116.700963 Z M190.498726,115.586228 L190.498726,128.237165 C190.498726,129.066734 190.319083,129.429671 189.754491,129.662987 C189.138572,129.87038 188.035051,129.896304 186.392601,129.896304 C186.341274,129.533367 186.135968,129.04081 185.956325,128.677873 C187.367805,128.729722 188.49699,128.703798 188.856276,128.677873 C189.215562,128.677873 189.292552,128.600101 189.292552,128.263089 L189.292552,124.452253 L182.902394,124.452253 L182.902394,129.922228 L181.721883,129.922228 L181.721883,115.586228 L190.498726,115.586228 Z M187.085509,108.431191 L188.060714,107.990482 C189.472195,109.727393 190.986329,112.060558 191.550921,113.590077 L190.550053,114.082634 C190.37041,113.667849 190.13944,113.201216 189.882807,112.682735 C182.337802,113.201216 181.567903,113.304912 181.080301,113.48638 C181.028974,113.201216 180.823668,112.553115 180.669688,112.242026 C181.028974,112.190178 181.38826,111.801317 181.798873,111.205064 C182.286475,110.686583 183.774946,108.508963 184.698824,106.409115 L185.930662,106.875748 C184.90413,108.768203 183.697956,110.660659 182.517445,112.086482 L189.318215,111.697621 C188.65097,110.582887 187.855408,109.416305 187.085509,108.431191 Z M195.939343,128.574177 L200.84103,128.574177 C201.995878,128.574177 202.175521,128.029772 202.303837,124.970734 C202.611797,125.204051 203.073736,125.385519 203.433022,125.437367 C203.253379,128.859342 202.86843,129.688911 200.892357,129.688911 L195.913679,129.688911 C193.757963,129.688911 193.142045,129.274127 193.142045,127.563139 L193.142045,118.489722 L194.373882,118.489722 L194.373882,122.922734 C196.965874,122.145013 199.865825,121.108051 201.482612,120.071089 L202.303837,121.030279 C200.327764,122.222785 197.119854,123.233823 194.373882,123.985621 L194.373882,127.589063 C194.373882,128.366785 194.630515,128.574177 195.939343,128.574177 Z" id="让每个人无限可能"></path>
            <path d="M31.3194753,89.9132623 L38.947283,89.9132623 C41.2204707,89.9132623 41.5740777,88.8049941 41.8771694,82.1553847 C42.9379903,83.0117738 45.0596322,83.8177871 46.3730296,84.120042 C45.7668462,92.331302 44.4029335,94.4974626 39.30089,94.4974626 L30.7132919,94.4974626 C25.0555802,94.4974626 23.590637,92.9861878 23.590637,87.7974775 L23.590637,71.82834 L23.1359995,71.82834 C21.0648729,81.500499 15.9628293,90.5177722 3.18246281,95.7064825 C2.52576414,94.4974626 1.21236679,92.7846845 0,91.7771679 C11.4669692,87.4448467 16.265921,79.9892241 18.3370476,71.82834 L0.757729241,71.82834 L0.757729241,67.2441396 L19.1958074,67.2441396 C19.7009603,63.8689591 19.8525061,60.5441545 19.9535367,57.2697257 L3.78864621,57.2697257 L3.78864621,52.7359011 L43.0895362,52.7359011 L43.0895362,57.2697257 L24.7524885,57.2697257 C24.6009427,60.5441545 24.4493968,63.8689591 23.9947593,67.2441396 L45.918392,67.2441396 L45.918392,71.82834 L28.4906195,71.82834 L28.4906195,87.7471017 C28.4906195,89.6110073 28.945257,89.9132623 31.3194753,89.9132623 Z M62.5505489,63.1636976 L62.5505489,67.8486496 L72.8556665,67.8486496 L72.8556665,63.1636976 L62.5505489,63.1636976 Z M62.5505489,54.9524376 L62.5505489,59.5366379 L72.8556665,59.5366379 L72.8556665,54.9524376 L62.5505489,54.9524376 Z M88.0102514,59.5366379 L88.0102514,54.9524376 L77.6041031,54.9524376 L77.6041031,59.5366379 L88.0102514,59.5366379 Z M88.0102514,67.8486496 L88.0102514,63.1636976 L77.6041031,63.1636976 L77.6041031,67.8486496 L88.0102514,67.8486496 Z M92.8597185,71.6772125 L83.665937,71.6772125 C87.3535527,75.2035205 92.9102338,78.0749427 98.6184607,79.5358417 C97.5576398,80.4929824 96.1432119,82.3065122 95.4359979,83.5155321 C92.1019893,82.4576397 88.8690112,80.8456132 85.9391248,78.9313317 L85.9391248,95.6057308 L81.0896576,95.6057308 L81.0896576,78.1253185 L84.8277885,78.1253185 C82.3020244,76.2614129 79.9783214,74.0448764 78.2102865,71.6772125 L72.8051513,71.6772125 C70.9866011,73.9945006 68.6628981,76.211037 66.0866186,78.0749427 L70.2793871,78.0749427 L70.2793871,81.2989957 C70.2793871,86.0846993 69.0670203,92.2305504 59.1155096,96.0591133 C58.5598415,94.8500934 56.9938678,93.1373153 55.9330468,92.2305504 C64.5206449,89.2583765 65.4804353,84.6741762 65.4804353,81.1478682 L65.4804353,78.5283251 C62.3484877,80.6944857 58.9134485,82.4576397 55.427894,83.7170354 C54.72068,82.5080155 53.3567674,80.7952374 52.2959465,79.8380967 C57.7010817,78.276446 63.3082781,75.2538963 67.046409,71.6772125 L57.9031428,71.6772125 L57.9031428,51.1238746 L92.8597185,51.1238746 L92.8597185,71.6772125 Z M123.939246,76.7147953 L121.00936,80.5937341 C120.049569,79.1832109 118.129989,76.9162986 116.412469,74.9516413 L116.412469,95.6561067 L111.866094,95.6561067 L111.866094,76.1102854 C109.794967,78.1253185 107.572295,79.8884725 105.450653,81.2486198 C105.097046,79.9892241 104.08674,77.5208086 103.480557,76.6140437 C108.784661,73.5411181 114.139281,68.0501529 117.372259,62.2065568 L104.894985,62.2065568 L104.894985,57.9749873 L114.442373,57.9749873 C113.533098,56.1110816 111.613517,53.2900352 109.895998,51.3757538 L113.533098,49.3103448 C115.402163,51.2750021 117.422775,53.944921 118.281535,55.7584508 L114.644434,57.9749873 L119.847508,57.9749873 L120.655753,57.7734839 L123.181517,59.5366379 C121.716574,63.2644492 119.594932,66.841133 117.170198,70.1155618 C119.19081,71.9290916 122.928941,75.6569029 123.939246,76.7147953 Z M139.194862,89.3087523 L150.510285,89.3087523 L150.510285,93.8929527 L121.666058,93.8929527 L121.666058,89.3087523 L134.39591,89.3087523 L134.39591,69.3095486 L123.939246,69.3095486 L123.939246,64.8260999 L134.39591,64.8260999 L134.39591,49.5118481 L139.194862,49.5118481 L139.194862,64.8260999 L149.398949,64.8260999 L149.398949,69.3095486 L139.194862,69.3095486 L139.194862,89.3087523 Z M163.606372,89.7621348 L202.149533,89.7621348 L202.149533,94.2455835 L159.009481,94.2455835 L159.009481,51.9298879 L200.886651,51.9298879 L200.886651,56.4133366 L163.606372,56.4133366 L163.606372,89.7621348 Z M196.744397,83.3644046 L193.006267,86.7899609 C190.581533,83.8177871 186.843402,80.0396 182.600118,76.0599095 C178.40735,80.2914791 173.91149,83.9185387 169.365114,86.7899609 C168.55687,85.883196 166.73832,84.0696662 165.677499,83.263653 C170.425935,80.5937341 175.073341,77.0674261 179.26611,73.0373599 C175.275402,69.4606761 171.183664,65.9343681 167.445533,62.9621942 L170.779542,60.1915237 C174.366127,62.9621942 178.457865,66.3373747 182.398057,69.762931 C185.631035,66.2366231 188.459891,62.458436 190.733079,58.4787455 L195.127908,60.2418995 C192.501114,64.6749724 189.318651,68.8561661 185.833096,72.7351049 C190.177411,76.5636678 194.117603,80.3418549 196.744397,83.3644046 Z" id="无界社区"></path>
            <path d="M0.641744548,37.1428571 L0.641744548,0 L7.357419,0 L14.174081,18.7732919 C15.0324755,21.246118 15.7898824,23.7694099 16.6482769,26.2927019 L16.9007458,26.2927019 C17.7591403,23.7694099 18.4660534,21.246118 19.3244479,18.7732919 L26.0401223,0 L32.8062906,0 L32.8062906,37.1428571 L27.352961,37.1428571 L27.352961,18.7732919 C27.352961,15.4425466 27.8074051,10.6482919 28.1103678,7.26708075 L27.9083927,7.26708075 L24.9292589,15.8462733 L18.4660534,33.5597826 L14.8305003,33.5597826 L8.31680106,15.8462733 L5.38816107,7.26708075 L5.1861859,7.26708075 C5.43865487,10.6482919 5.893099,15.4425466 5.893099,18.7732919 L5.893099,37.1428571 L0.641744548,37.1428571 Z M48.8633167,37.1428571 L48.8633167,0 L54.7205967,0 L54.7205967,37.1428571 L48.8633167,37.1428571 Z M66.6876256,37.1428571 L77.3418159,17.9658385 L67.3440449,0 L73.8577442,0 L78.3516917,8.68012422 C79.26058,10.3959627 80.0684807,12.0613354 81.1793441,14.2818323 L81.4318131,14.2818323 C82.3911951,12.0613354 83.0981082,10.3959627 83.9565027,8.68012422 L88.3494627,0 L94.5097054,0 L84.5119344,18.2686335 L95.2166185,37.1428571 L88.7029192,37.1428571 L83.8050213,27.9076087 C82.8456393,26.0403727 81.8862572,24.1226708 80.7249,21.8517081 L80.5229248,21.8517081 C79.4625552,24.1226708 78.5536669,26.0403727 77.6447786,27.9076087 L72.8983621,37.1428571 L66.6876256,37.1428571 Z M107.183647,37.1428571 L107.183647,0 L113.040927,0 L113.040927,32.197205 L128.744497,32.197205 L128.744497,37.1428571 L107.183647,37.1428571 Z M147.225225,21.9526398 L157.374478,21.9526398 L155.910158,16.9565217 C154.647813,12.9192547 153.536949,8.7810559 152.375592,4.5923913 L152.173617,4.5923913 C151.113247,8.83152174 149.95189,12.9192547 148.740039,16.9565217 L147.225225,21.9526398 Z M161.918919,37.1428571 L158.788304,26.5450311 L145.861893,26.5450311 L142.680784,37.1428571 L136.722516,37.1428571 L149.043002,0 L155.80917,0 L168.129655,37.1428571 L161.918919,37.1428571 Z M179.339277,37.1428571 L179.339277,0 L190.851862,0 C198.476425,0 203.980248,2.42236025 203.980248,9.13431677 C203.980248,12.6669255 202.01099,16.0481366 198.6784,17.1583851 L198.6784,17.4107143 C202.919879,18.3190994 206,21.1956522 206,26.242236 C206,33.6102484 199.991239,37.1428571 191.76075,37.1428571 L179.339277,37.1428571 Z M185.196557,15.4930124 L190.195443,15.4930124 C195.850748,15.4930124 198.223956,13.3734472 198.223956,9.89130435 C198.223956,6.00543478 195.598279,4.54192547 190.346924,4.54192547 L185.196557,4.54192547 L185.196557,15.4930124 Z M185.196557,32.5504658 L191.104331,32.5504658 C196.911117,32.5504658 200.243708,30.4813665 200.243708,25.939441 C200.243708,21.7507764 197.012105,19.9340062 191.104331,19.9340062 L185.196557,19.9340062 L185.196557,32.5504658 Z" id="MIXLAB"></path>
        </g>
        <rect id="title" x="27" y="4" width="455" height="81"></rect>
        <rect id="emoji" x="80" y="101" width="200" height="200"></rect>
        <rect id="emoji" x="280" y="201" width="114" height="114"></rect>
        <rect id="emoji" x="412" y="169" width="89" height="89"></rect>
        <rect id="name" fill="#D8D8D8" x="952" y="1036" width="369.372" height="79"></rect>
        <path d="M922.704,1092.088 C920.904,1092.088 918.78,1091.152 917.016,1089.676 L916.944,1089.676 L916.692,1091.62 L915,1091.62 L915,1063 L917.088,1063 L917.088,1071.208 L916.98,1074.88 C918.888,1073.26 921.156,1071.928 923.46,1071.928 C928.572,1071.928 931.164,1075.816 931.164,1081.72 C931.164,1088.272 927.204,1092.088 922.704,1092.088 Z M922.524,1090.252 C926.268,1090.252 928.932,1086.868 928.932,1081.72 C928.932,1077.112 927.348,1073.764 923.064,1073.764 C921.228,1073.764 919.248,1074.844 917.088,1076.824 L917.088,1087.912 C919.068,1089.64 921.12,1090.252 922.524,1090.252 Z M936.168,1100.26 C935.412,1100.26 934.656,1100.116 934.116,1099.864 L934.584,1098.1 C934.98,1098.244 935.592,1098.388 936.132,1098.388 C938.436,1098.388 939.984,1096.3 940.92,1093.528 L941.424,1091.908 L933.576,1072.432 L935.844,1072.432 L940.308,1084.168 C940.92,1085.824 941.64,1087.84 942.324,1089.568 L942.504,1089.568 C943.08,1087.84 943.692,1085.824 944.232,1084.168 L948.156,1072.432 L950.28,1072.432 L942.792,1093.852 C941.64,1097.164 939.696,1100.26 936.168,1100.26 Z" id="by" fill="#000000"></path>
        <path d="M678.398848,1115 C616.552886,1115 558.590232,1086.46826 514.611307,1034.48829 C479.814584,1061.07364 439.642448,1075.08762 398.11211,1075.08762 C291.215967,1075.08762 200.675622,981.821355 184.185917,856.588548 C173.148144,860.229436 161.880816,862.061329 150.613488,862.061329 C80.2357302,862.061329 23,793.640114 23,709.510413 C23,640.974704 61.3930851,581.209184 115.721118,562.821555 C106.959766,547.181766 102.215628,528.954427 102.215628,510.314913 C102.215628,457.739574 137.987959,414.964865 181.966884,414.964865 C199.585236,414.964865 216.247108,421.788668 230.039541,434.428732 C241.804239,365.709834 298.274785,316.042626 360.025098,330.74357 C402.224972,248.697648 478.245958,198 559.62323,198 C632.583482,198 699.70921,237.065125 744.35767,305.348949 C777.164915,302.120237 810.871251,308.279978 841.822926,323.255706 C867.973074,250.346352 928.824297,201.938571 995.414396,201.938571 C1087.58076,201.938571 1162.58787,291.609749 1162.58787,401.821031 C1162.58787,403.080457 1162.54961,404.294087 1162.49223,405.553513 C1257.52802,443.931679 1321,549.357139 1321,669.849923 C1321,818.187484 1220.66531,930.04747 1087.59989,930.04747 C1081.11495,930.04747 1074.51525,929.681092 1067.55208,928.948334 C1049.93372,978.959022 1010.31635,1027.73318 965.706144,1027.73318 C931.827642,1027.73318 900.187302,1009.41425 879.183013,978.13467 C837.174436,1062.88263 761.210838,1115 678.398848,1115 Z" id="detail" fill="#FFFFFF" fill-rule="nonzero"></path>
        <rect id="avatar" x="1137" y="45" width="144" height="144"></rect>
    </g>
</svg>